<svg width="50" height="50" viewBox="0 0 50 50" fill="none" xmlns="http://www.w3.org/2000/svg">
<path d="M25 12.5C25.4144 12.5 25.8118 12.6646 26.1049 12.9576C26.3979 13.2507 26.5625 13.6481 26.5625 14.0625V23.4375H35.9375C36.3519 23.4375 36.7493 23.6021 37.0424 23.8951C37.3354 24.1882 37.5 24.5856 37.5 25C37.5 25.4144 37.3354 25.8118 37.0424 26.1049C36.7493 26.3979 36.3519 26.5625 35.9375 26.5625H26.5625V35.9375C26.5625 36.3519 26.3979 36.7493 26.1049 37.0424C25.8118 37.3354 25.4144 37.5 25 37.5C24.5856 37.5 24.1882 37.3354 23.8951 37.0424C23.6021 36.7493 23.4375 36.3519 23.4375 35.9375V26.5625H14.0625C13.6481 26.5625 13.2507 26.3979 12.9576 26.1049C12.6646 25.8118 12.5 25.4144 12.5 25C12.5 24.5856 12.6646 24.1882 12.9576 23.8951C13.2507 23.6021 13.6481 23.4375 14.0625 23.4375H23.4375V14.0625C23.4375 13.6481 23.6021 13.2507 23.8951 12.9576C24.1882 12.6646 24.5856 12.5 25 12.5Z" fill="white"/>
</svg>
