<svg width="60" height="60" viewBox="0 0 60 60" fill="none" xmlns="http://www.w3.org/2000/svg">
<path fill-rule="evenodd" clip-rule="evenodd" d="M15.6786 25C15.4418 25 15.2147 25.1054 15.0472 25.2929C14.8798 25.4804 14.7857 25.7348 14.7857 26V57C14.7857 57.2652 14.8798 57.5196 15.0472 57.7071C15.2147 57.8946 15.4418 58 15.6786 58H35.3214C35.5582 58 35.7853 57.8946 35.9528 57.7071C36.1202 57.5196 36.2143 57.2652 36.2143 57V26C36.2143 25.7348 36.1202 25.4804 35.9528 25.2929C35.7853 25.1054 35.5582 25 35.3214 25H30.3366V23H35.3214C36.0318 23 36.7131 23.3161 37.2155 23.8787C37.7178 24.4413 38 25.2044 38 26V57C38 57.7957 37.7178 58.5587 37.2155 59.1213C36.7131 59.6839 36.0318 60 35.3214 60H15.6786C14.9682 60 14.2869 59.6839 13.7845 59.1213C13.2822 58.5587 13 57.7957 13 57V26C13 25.2044 13.2822 24.4413 13.7845 23.8787C14.2869 23.3161 14.9682 23 15.6786 23H20.6634V25H15.6786Z" fill="white"/>
<path fill-rule="evenodd" clip-rule="evenodd" d="M19.25 23C19.25 22.2044 19.5322 21.4413 20.0345 20.8787C20.5369 20.3161 21.2182 20 21.9286 20H29.0714C29.7818 20 30.4631 20.3161 30.9655 20.8787C31.4678 21.4413 31.75 22.2044 31.75 23V25C31.75 25.7956 31.4678 26.5587 30.9655 27.1213C30.4631 27.6839 29.7818 28 29.0714 28H21.9286C21.2182 28 20.5369 27.6839 20.0345 27.1213C19.5322 26.5587 19.25 25.7956 19.25 25V23ZM21.9286 22C21.6918 22 21.4647 22.1054 21.2972 22.2929C21.1298 22.4804 21.0357 22.7348 21.0357 23V25C21.0357 25.2652 21.1298 25.5196 21.2972 25.7071C21.4647 25.8946 21.6918 26 21.9286 26H29.0714C29.3082 26 29.5353 25.8946 29.7028 25.7071C29.8702 25.5196 29.9643 25.2652 29.9643 25V23C29.9643 22.7348 29.8702 22.4804 29.7028 22.2929C29.5353 22.1054 29.3082 22 29.0714 22H21.9286Z" fill="white"/>
<path fill-rule="evenodd" clip-rule="evenodd" d="M17.4642 37C17.4642 36.7348 17.5583 36.4804 17.7257 36.2929C17.8932 36.1054 18.1203 36 18.3571 36H24.6071C24.8439 36 25.071 36.1054 25.2384 36.2929C25.4059 36.4804 25.4999 36.7348 25.4999 37C25.4999 37.2652 25.4059 37.5196 25.2384 37.7071C25.071 37.8946 24.8439 38 24.6071 38H18.3571C18.1203 38 17.8932 37.8946 17.7257 37.7071C17.5583 37.5196 17.4642 37.2652 17.4642 37Z" fill="white"/>
<path fill-rule="evenodd" clip-rule="evenodd" d="M17.4642 32C17.4642 31.7348 17.5583 31.4804 17.7257 31.2929C17.8932 31.1054 18.1203 31 18.3571 31H32.1964C32.4332 31 32.6603 31.1054 32.8277 31.2929C32.9952 31.4804 33.0892 31.7348 33.0892 32C33.0892 32.2652 32.9952 32.5196 32.8277 32.7071C32.6603 32.8946 32.4332 33 32.1964 33H18.3571C18.1203 33 17.8932 32.8946 17.7257 32.7071C17.5583 32.5196 17.4642 32.2652 17.4642 32Z" fill="white"/>
<path fill-rule="evenodd" clip-rule="evenodd" d="M19.2499 45V47H21.0357V45H19.2499ZM18.3571 43C18.1203 43 17.8932 43.1054 17.7257 43.2929C17.5583 43.4804 17.4642 43.7348 17.4642 44V48C17.4642 48.2652 17.5583 48.5196 17.7257 48.7071C17.8932 48.8946 18.1203 49 18.3571 49H21.9285C22.1653 49 22.3924 48.8946 22.5599 48.7071C22.7273 48.5196 22.8214 48.2652 22.8214 48V44C22.8214 43.7348 22.7273 43.4804 22.5599 43.2929C22.3924 43.1054 22.1653 43 21.9285 43H18.3571Z" fill="white"/>
<path fill-rule="evenodd" clip-rule="evenodd" d="M29.0714 45C29.1919 45.0062 29.3122 44.9849 29.4252 44.9376C29.5381 44.8902 29.6414 44.8177 29.7286 44.7245C29.8159 44.6312 29.8854 44.5191 29.9329 44.395C29.9804 44.2708 30.0049 44.1371 30.0051 44.002C30.0052 43.867 29.9809 43.7332 29.9336 43.609C29.8863 43.4847 29.817 43.3725 29.7299 43.279C29.6428 43.1855 29.5397 43.1128 29.4269 43.0652C29.314 43.0176 29.1937 42.9961 29.0732 43.002C28.8435 43.0133 28.6266 43.1233 28.4675 43.3092C28.3085 43.4951 28.2196 43.7426 28.2193 44C28.2191 44.2575 28.3076 44.5052 28.4663 44.6914C28.625 44.8777 28.8417 44.9882 29.0714 45ZM29.0714 47C29.7818 47 30.4631 46.6839 30.9654 46.1213C31.4678 45.5587 31.75 44.7956 31.75 44C31.75 43.2044 31.4678 42.4413 30.9654 41.8787C30.4631 41.3161 29.7818 41 29.0714 41C28.361 41 27.6797 41.3161 27.1774 41.8787C26.675 42.4413 26.3928 43.2044 26.3928 44C26.3928 44.7956 26.675 45.5587 27.1774 46.1213C27.6797 46.6839 28.361 47 29.0714 47Z" fill="white"/>
<path fill-rule="evenodd" clip-rule="evenodd" d="M25.5001 51.28C25.5157 51.2595 25.5321 51.2399 25.5492 51.221C25.6956 51.061 25.9777 50.849 26.4206 50.638C27.3135 50.213 28.4152 50 29.0715 50C29.7277 50 30.8295 50.213 31.7224 50.638C32.1652 50.848 32.4474 51.061 32.5938 51.221C32.6109 51.2395 32.6273 51.2589 32.6429 51.279V53H25.5001V51.28ZM29.0715 48C27.2831 48 23.7144 49.066 23.7144 51.182V55H34.4286V51.182C34.4286 49.066 30.8599 48 29.0715 48Z" fill="white"/>
</svg>
