<svg width="40" height="40" viewBox="0 0 40 40" fill="none" xmlns="http://www.w3.org/2000/svg">
<path d="M29.5434 21.7L23.3334 26.6667H15V25H21.775C21.9258 24.9999 22.0737 24.959 22.203 24.8815C22.3323 24.804 22.4381 24.6929 22.5093 24.56C22.5804 24.4271 22.6142 24.2774 22.607 24.1268C22.5998 23.9763 22.5519 23.8305 22.4684 23.705L20.9884 21.485C20.6848 21.028 20.2728 20.6533 19.7892 20.3942C19.3056 20.135 18.7654 19.9996 18.2167 20H5.00004C4.55801 20 4.13409 20.1756 3.82153 20.4882C3.50897 20.8007 3.33337 21.2246 3.33337 21.6667V31.6667C3.33337 32.5507 3.68456 33.3986 4.30968 34.0237C4.93481 34.6488 5.78265 35 6.66671 35H22.7317C23.4444 35.0002 24.1489 34.848 24.7979 34.5536C25.447 34.2593 26.0256 33.8296 26.495 33.2933L36.6667 21.6667L34.2467 20.86C33.455 20.5961 32.6097 20.5347 31.7881 20.6814C30.9666 20.8281 30.1948 21.1783 29.5434 21.7ZM32.0967 12.3167C32.8484 11.5417 33.3134 10.47 33.3134 9.28667C33.3134 8.10333 32.8484 7.03167 32.0967 6.25667C31.7166 5.85996 31.2602 5.54416 30.755 5.32821C30.2498 5.11227 29.7061 5.00063 29.1567 5C29.1567 5 27.0834 4.995 25 7.14333C22.9167 4.995 20.8434 5 20.8434 5C20.2941 5.0007 19.7506 5.11221 19.2455 5.32785C18.7403 5.54349 18.2838 5.85883 17.9034 6.255C17.1517 7.03167 16.6867 8.10167 16.6867 9.285C16.6867 10.4683 17.1517 11.5417 17.9034 12.315L25 20L32.0967 12.3167Z" fill="white"/>
</svg>
