<svg width="40" height="40" viewBox="0 0 40 40" fill="none" xmlns="http://www.w3.org/2000/svg">
<path d="M5 15.0002H11.6667V8.3335H5V15.0002ZM5 23.3335H11.6667V16.6668H5V23.3335ZM13.3333 23.3335H20V16.6668H13.3333V23.3335ZM21.6667 23.3335H28.3333V16.6668H21.6667V23.3335ZM13.3333 15.0002H20V8.3335H13.3333V15.0002ZM21.6667 8.3335V15.0002H28.3333V8.3335H21.6667ZM30 23.3335H36.6667V16.6668H30V23.3335ZM5 31.6668H11.6667V25.0002H5V31.6668ZM13.3333 31.6668H20V25.0002H13.3333V31.6668ZM21.6667 31.6668H28.3333V25.0002H21.6667V31.6668ZM30 31.6668H36.6667V25.0002H30V31.6668ZM30 8.3335V15.0002H36.6667V8.3335H30Z" fill="white"/>
</svg>
