<svg width="30" height="30" viewBox="0 0 30 30" fill="none" xmlns="http://www.w3.org/2000/svg">
<path d="M17.5 10H5.83333C5.61232 10 5.40036 9.9122 5.24408 9.75592C5.0878 9.59964 5 9.38768 5 9.16667V5.83333C5 5.61232 5.0878 5.40036 5.24408 5.24408C5.40036 5.0878 5.61232 5 5.83333 5H17.5C17.721 5 17.933 5.0878 18.0893 5.24408C18.2455 5.40036 18.3333 5.61232 18.3333 5.83333V9.16667C18.3333 9.38768 18.2455 9.59964 18.0893 9.75592C17.933 9.9122 17.721 10 17.5 10ZM6.66667 8.33333H16.6667V6.61667H6.66667V8.33333Z" fill="white"/>
<path d="M17.5 11.7334H5.83333C5.61232 11.7334 5.40036 11.8212 5.24408 11.9775C5.0878 12.1338 5 12.3457 5 12.5667V15.8334C5 16.0544 5.0878 16.2664 5.24408 16.4227C5.40036 16.5789 5.61232 16.6667 5.83333 16.6667H15.3L18.3333 13.5834V12.5667C18.3333 12.3457 18.2455 12.1338 18.0893 11.9775C17.933 11.8212 17.721 11.7334 17.5 11.7334ZM16.6667 15.0001H6.66667V13.3334H16.6667V15.0001Z" fill="white"/>
<path d="M9.21663 26.2582V26.2082L9.48329 25.0498H3.33329V3.33317H20V11.8748L21.6666 10.2998V2.49984C21.6666 2.27882 21.5788 2.06686 21.4225 1.91058C21.2663 1.7543 21.0543 1.6665 20.8333 1.6665H2.49996C2.27895 1.6665 2.06698 1.7543 1.9107 1.91058C1.75442 2.06686 1.66663 2.27882 1.66663 2.49984V25.8332C1.66663 26.0542 1.75442 26.2661 1.9107 26.4224C2.06698 26.5787 2.27895 26.6665 2.49996 26.6665H9.16663C9.17349 26.5294 9.1902 26.3929 9.21663 26.2582V26.2582Z" fill="white"/>
<path d="M18.3333 15.9751L17.6833 16.6334C17.8446 16.6002 17.9924 16.5199 18.1081 16.4027C18.2238 16.2856 18.3022 16.1368 18.3333 15.9751Z" fill="white"/>
<path d="M5 22.4502C5 22.6712 5.0878 22.8831 5.24408 23.0394C5.40036 23.1957 5.61232 23.2835 5.83333 23.2835H9.86667L10.1167 22.2002L10.225 21.7418V21.7002H6.66667V20.0002H11.95L13.6167 18.3335H5.83333C5.61232 18.3335 5.40036 18.4213 5.24408 18.5776C5.0878 18.7339 5 18.9458 5 19.1668V22.4502Z" fill="white"/>
<path d="M27.9084 13.8916L25.1001 11.0832C24.9755 10.9583 24.8274 10.8591 24.6644 10.7914C24.5014 10.7238 24.3266 10.689 24.1501 10.689C23.9736 10.689 23.7988 10.7238 23.6358 10.7914C23.4728 10.8591 23.3247 10.9583 23.2001 11.0832L11.7751 22.5749L10.8334 26.5832C10.7982 26.7562 10.7974 26.9343 10.8311 27.1076C10.8648 27.2808 10.9324 27.4457 11.0299 27.5928C11.1275 27.7398 11.2531 27.8662 11.3995 27.9647C11.546 28.0632 11.7104 28.1318 11.8834 28.1666C11.9693 28.1752 12.0559 28.1752 12.1418 28.1666C12.2439 28.1832 12.348 28.1832 12.4501 28.1666L16.4918 27.2749L27.9084 15.8332C28.0332 15.7093 28.1321 15.5619 28.1997 15.3996C28.2672 15.2373 28.302 15.0632 28.302 14.8874C28.302 14.7116 28.2672 14.5375 28.1997 14.3752C28.1321 14.2128 28.0332 14.0655 27.9084 13.9416V13.8916ZM15.6418 25.7582L12.5918 26.4332L13.3334 23.4082L21.9001 14.7499L24.2501 17.0999L15.6418 25.7582ZM25.1918 16.1582L22.8418 13.8082L24.1668 12.4999L26.5334 14.8666L25.1918 16.1582Z" fill="white"/>
</svg>
