<svg width="40" height="40" viewBox="0 0 40 40" fill="none" xmlns="http://www.w3.org/2000/svg">
<path fill-rule="evenodd" clip-rule="evenodd" d="M5.68171 12.0835C5.50096 11.9027 5.39941 11.6575 5.39941 11.4018C5.39941 11.1461 5.50096 10.901 5.68171 10.7201L11.1367 5.26514C11.2263 5.17563 11.3326 5.10463 11.4496 5.0562C11.5666 5.00778 11.692 4.98287 11.8187 4.98291C11.9453 4.98295 12.0707 5.00793 12.1877 5.05643C12.3047 5.10492 12.4109 5.17599 12.5005 5.26556C12.59 5.35513 12.661 5.46146 12.7094 5.57847C12.7578 5.69548 12.7827 5.82089 12.7827 5.94752C12.7827 6.07416 12.7577 6.19955 12.7092 6.31653C12.6607 6.43351 12.5896 6.53979 12.5 6.62931L11.8184 7.31014L15.2267 10.7185L17.9542 7.99181C18.135 7.81091 18.3802 7.70924 18.636 7.70916C18.7626 7.70912 18.888 7.73403 19.0051 7.78245C19.1221 7.83088 19.2284 7.90188 19.318 7.99139C19.4075 8.08091 19.4786 8.1872 19.5271 8.30418C19.5756 8.42116 19.6006 8.54655 19.6006 8.67318C19.6006 8.79982 19.5757 8.92522 19.5273 9.04223C19.4789 9.15924 19.4079 9.26557 19.3184 9.35514L17.9542 10.7193L29.5459 22.311C30.2093 22.9745 30.6647 23.8171 30.8564 24.7355C31.0481 25.654 30.9677 26.6084 30.625 27.4818L31.5909 28.4476C32.095 28.9518 32.2617 29.6668 32.0909 30.3101L34.3184 32.5376C34.4079 32.6272 34.479 32.7336 34.5275 32.8506C34.576 32.9676 34.6009 33.0931 34.6009 33.2197C34.6009 33.3464 34.576 33.4718 34.5275 33.5889C34.479 33.7059 34.4079 33.8122 34.3184 33.9018C34.2288 33.9914 34.1225 34.0624 34.0054 34.1109C33.8884 34.1594 33.763 34.1843 33.6363 34.1843C33.5096 34.1843 33.3842 34.1594 33.2672 34.1109C33.1501 34.0624 33.0438 33.9914 32.9542 33.9018L30.7267 31.6743C30.3996 31.762 30.0551 31.762 29.728 31.6742C29.4009 31.5864 29.1027 31.414 28.8634 31.1743L27.8984 30.2093C27.0249 30.5518 26.0704 30.6321 25.1519 30.4403C24.2335 30.2484 23.3909 29.7928 22.7275 29.1293L20.9442 27.346L26.5834 21.706L16.775 11.8976L12.3142 16.3593L14.2892 18.3335H11.9317L11.1359 17.5376L9.77254 18.901C9.6836 18.9931 9.57721 19.0665 9.45958 19.117C9.34195 19.1675 9.21544 19.1941 9.08742 19.1952C8.9594 19.1964 8.83245 19.172 8.71396 19.1235C8.59548 19.075 8.48783 19.0034 8.39731 18.9129C8.30678 18.8224 8.23519 18.7147 8.18671 18.5962C8.13824 18.4777 8.11384 18.3508 8.11495 18.2228C8.11605 18.0948 8.14264 17.9682 8.19317 17.8506C8.24369 17.733 8.31713 17.6266 8.40921 17.5376L11.1367 14.8101L7.72838 11.4018L7.04504 12.0835C6.86424 12.2642 6.61904 12.3658 6.36338 12.3658C6.10771 12.3658 5.86252 12.2642 5.68171 12.0835ZM10.64 8.48931L14.0484 11.8976L12.315 13.631L8.90671 10.2226L10.64 8.48931ZM23.9059 27.9501L23.4859 27.5301L27.9467 23.0685L28.3667 23.4885C28.8011 23.9227 29.0994 24.4743 29.2249 25.0756C29.3505 25.6769 29.2978 26.3017 29.0734 26.8735L27.29 28.6568C26.7184 28.8812 26.0937 28.9338 25.4926 28.8083C24.8914 28.6827 24.34 28.3845 23.9059 27.9501ZM29.5459 29.1285C29.4834 29.191 29.42 29.251 29.355 29.3085L30.0417 29.9951C30.066 30.0195 30.0949 30.0388 30.1266 30.052C30.1584 30.0652 30.1924 30.072 30.2268 30.0721C30.2612 30.0721 30.2953 30.0654 30.3271 30.0522C30.3589 30.0391 30.3878 30.0199 30.4121 29.9956C30.4365 29.9713 30.4558 29.9424 30.469 29.9107C30.4822 29.8789 30.489 29.8448 30.4891 29.8104C30.4891 29.776 30.4824 29.742 30.4692 29.7102C30.4561 29.6784 30.4368 29.6495 30.4125 29.6251L29.7259 28.9385C29.6676 29.0034 29.6076 29.0668 29.5459 29.1285Z" fill="white"/>
<path d="M13.3333 23.3335C13.5543 23.3335 13.7663 23.4213 13.9226 23.5776C14.0789 23.7339 14.1667 23.9458 14.1667 24.1668V25.8335H15.8333C16.0543 25.8335 16.2663 25.9213 16.4226 26.0776C16.5789 26.2339 16.6667 26.4458 16.6667 26.6668C16.6667 26.8878 16.5789 27.0998 16.4226 27.2561C16.2663 27.4124 16.0543 27.5002 15.8333 27.5002H14.1667V29.1668C14.1667 29.3878 14.0789 29.5998 13.9226 29.7561C13.7663 29.9124 13.5543 30.0002 13.3333 30.0002C13.1123 30.0002 12.9004 29.9124 12.7441 29.7561C12.5878 29.5998 12.5 29.3878 12.5 29.1668V27.5002H10.8333C10.6123 27.5002 10.4004 27.4124 10.2441 27.2561C10.0878 27.0998 10 26.8878 10 26.6668C10 26.4458 10.0878 26.2339 10.2441 26.0776C10.4004 25.9213 10.6123 25.8335 10.8333 25.8335H12.5V24.1668C12.5 23.9458 12.5878 23.7339 12.7441 23.5776C12.9004 23.4213 13.1123 23.3335 13.3333 23.3335Z" fill="white"/>
<path fill-rule="evenodd" clip-rule="evenodd" d="M7.2167 31.4075C8.64964 33.222 10.6616 34.49 12.9167 35C15.1717 34.4903 17.1837 33.2225 18.6167 31.4083C20.0588 29.5833 20.8402 27.3235 20.8334 24.9975V22C20.8334 21.4692 20.625 20.9608 20.2542 20.5858C20.0713 20.4004 19.8533 20.2531 19.613 20.1525C19.3726 20.0519 19.1147 20.0001 18.8542 20H6.98004C6.45504 20 5.9517 20.2108 5.58004 20.5858C5.2081 20.9625 4.99969 21.4706 5.00004 22V24.9983C4.99379 27.3235 5.77511 29.5823 7.2167 31.4067V31.4075ZM19.1667 24.9992V25.0025C19.1722 26.9511 18.5177 28.8441 17.31 30.3733C16.1934 31.7874 14.6536 32.8071 12.9159 33.2833C11.1787 32.8068 9.63956 31.7871 8.52337 30.3733C7.31554 28.8442 6.66112 26.9511 6.6667 25.0025V22C6.6667 21.9058 6.7042 21.8192 6.7642 21.7583C6.79204 21.7296 6.82531 21.7067 6.86208 21.691C6.89885 21.6753 6.93838 21.667 6.97837 21.6667H18.855C18.9317 21.6667 19.0092 21.6975 19.0692 21.7583C19.1321 21.823 19.1671 21.9098 19.1667 22V24.9983V24.9992Z" fill="white"/>
</svg>
