<svg width="1150" height="648" viewBox="0 0 1150 648" fill="none" xmlns="http://www.w3.org/2000/svg">
<path d="M696.817 315.912C694.582 308.394 688.791 302.652 678.087 304.11L626.936 310.956C620.791 311.586 618.455 305.496 624.211 303.858L666.749 291.186C683.172 286.734 689.048 276.564 689.3 264.798C689.467 256.8 683.262 250.026 675.476 249.696C666.084 249.3 653.374 254.856 625.043 258.888C620.503 259.536 619.455 257.982 620.467 255.018C623.187 247.008 645.743 243.054 656.351 242.1C669.103 240.954 669.863 232.512 671.253 228.552C675.458 216.594 671.343 171.546 668.833 157.752C668.27 154.656 665.317 153.012 660.957 153.534C646.007 155.334 599.689 182.712 582.104 193.014C577.462 195.732 574.425 202.38 579.552 216.708C583.05 226.476 581.601 237.558 577.792 242.472C575.03 246.03 571.485 245.244 570.364 241.392C566.789 229.128 562.632 217.23 562.632 217.23C560.476 209.316 550.449 207.006 542.303 210.6C535.367 213.66 532.492 214.512 524.987 218.508C512.248 225.3 507.18 237.108 512.517 247.722L531.929 286.314C533.996 290.418 525.724 292.986 522.825 289.14L496.04 253.614C491.853 247.56 480.077 246.798 474.357 252.192C471.177 255.192 465.511 263.16 462.905 266.646C456.49 275.226 458.689 282.15 464.169 291.36L485.366 326.448C489.086 333.078 483.953 335.58 481.808 333.078C474.052 324.012 459.443 304.092 459.443 304.092C455.436 298.494 446.799 299.718 444.505 306.21C441.9 313.578 437.965 325.2 437.162 327.474L468.494 499.452L693.073 497.862L699.087 324.222C698.386 321.426 697.631 318.66 696.817 315.912Z" fill="#74BAAB"/>
<path d="M490.008 419.58C487.6 419.682 486.552 417.828 488.522 416.442C489.792 415.554 490.822 414.792 491.188 414.438C494.895 410.808 494.985 407.472 494.081 403.782C491.571 393.552 485.528 383.946 481.455 379.914C478.909 377.394 474.621 377.718 472.195 380.352L471.524 381.078C470.033 382.698 467.499 380.73 468.691 378.882L474.495 369.858C475.998 367.518 476.304 364.59 475.303 361.992C465.067 335.55 453.585 326.49 443.265 319.992C438.911 317.25 433.155 319.512 431.879 324.504L423.751 356.238C422.805 359.934 417.318 358.938 417.725 355.146L421.343 321.432C421.685 317.754 420.942 313.44 417.833 311.454C410.52 306.78 396.816 304.038 385.795 303.492C383.022 303.354 380.704 305.574 380.752 308.358L381.225 335.16C381.099 339.594 375.409 338.61 374.666 334.236L369.599 307.926C368.647 304.374 366.053 301.788 362.442 301.11C346.33 298.062 330.529 297.3 320.395 298.644C312.758 299.652 311.123 307.434 312.327 313.068L317.801 339.486C319.011 343.464 320.539 345.348 324.617 346.098L352.583 350.97C357.069 351.348 357.219 355.458 352.768 356.124C339.945 358.044 327.642 359.646 319.766 361.11C317.322 361.566 315.477 363.606 315.292 366.09C314.89 371.43 313.902 377.376 318.328 382.458C323.012 387.828 345.928 390.384 367.353 394.692C370.51 395.328 370.911 397.938 367.802 398.778C367.802 398.778 340.166 402.81 330.793 407.934C324.438 411.402 323.989 414.636 324.324 421.272C324.528 425.238 325.39 431.658 326.217 437.154C327.127 443.22 332.104 447.852 338.214 448.302C338.214 448.302 362.591 449.88 370.498 452.178C375.757 453.708 371.6 457.152 368.958 458.442C361.933 461.868 348.606 468.618 348.606 468.618C342.269 471.6 339.609 478.308 339.579 485.322C339.561 490.074 340.31 499.554 340.31 499.554H499.316C499.316 499.554 505.245 462.138 498.291 423.33C497.872 421.002 495.794 419.352 493.44 419.454L490.008 419.58Z" fill="#FFEF3D"/>
<path d="M378.146 487.986C374.271 473.61 428.848 457.71 437.874 499.002C428.081 499.02 433.615 499.002 421.349 499.002C402.488 487.26 380.967 498.462 378.146 487.986Z" fill="#74BAAB"/>
<path d="M373.456 435.99C372.828 431.85 376.373 428.184 380.434 427.212C407.663 420.714 411.143 440.682 414.395 444.546C416.695 447.276 423.02 445.626 426.398 449.628C428.591 452.226 425.973 460.128 428.531 463.704C431.34 467.628 435.58 464.424 438.911 469.35C441.828 473.664 435.862 478.284 437.797 482.946C440.336 489.072 449.153 486.534 444.164 498.102C439.893 498.084 439.025 498.072 439.025 498.072C439.025 498.072 426.674 496.572 428.165 487.302C428.794 483.408 418.714 486.204 416.306 482.61C414.383 479.742 417.384 477.054 413.838 475.614C411.64 474.72 403.56 475.89 401.362 471.222C399.685 467.67 404.141 463.344 398.828 461.982C386.915 458.922 376.367 455.202 373.456 435.99Z" fill="#74BAAB"/>
<path d="M433.999 472.776C437.287 462.942 438.21 452.898 444.445 450.636C448.955 448.998 450.135 453.024 453.351 452.124C457.838 450.87 457.388 429.42 486.049 431.604C494.811 432.27 500.22 446.694 484.605 451.158C476.268 453.546 485.755 454.782 483.197 459.33C479.592 465.738 465.444 462.768 460.922 468.738C458.251 472.266 462.983 478.68 458.281 487.962C457.179 490.14 455.909 492.222 454.609 494.13C450.992 499.452 442.948 498.69 440.402 492.78C437.054 485.004 433.035 475.662 433.999 472.776Z" fill="#74BAAB"/>
<path d="M436.922 490.332C433.508 478.29 431.849 465.978 432.19 454.914C432.675 439.374 437.06 427.212 444.864 419.748L447.344 422.352C432.885 436.17 433.568 465.606 440.576 490.026C441.348 492.69 437.749 493.254 436.922 490.332Z" fill="#FDFFFF"/>
<path d="M429.075 419.921L450.033 419.129L448.32 424.373L454.208 432.707C454.705 433.559 453.495 434.693 451.979 434.225C450.518 433.781 449.021 432.233 448.08 430.643C447.601 429.833 446.966 430.349 447.002 430.943C447.092 432.443 447.194 434.999 447.194 434.999C447.296 436.553 446.062 436.961 444.57 435.263C442.522 432.929 442.3 430.235 442.025 428.225C441.929 427.535 441.228 427.253 440.587 427.511C440.587 427.511 435.945 428.777 434.43 429.305C432.597 429.947 431.465 428.597 432.933 427.331C433.502 426.839 435.137 425.261 435.137 425.261C435.586 424.901 435.442 424.187 434.885 424.031L428.872 422.135C427.213 421.673 427.35 419.939 429.075 419.921Z" fill="#274D76"/>
<path d="M429.771 396.137L431.256 396.401C431.885 396.515 432.436 395.975 432.346 395.345L431.957 392.663C431.675 390.719 433.73 389.285 435.449 390.233L436.647 390.893C437.228 391.211 437.947 390.839 438.024 390.179L438.288 387.923C438.48 386.291 440.492 385.631 441.606 386.837L442.475 387.779C442.888 388.229 443.613 388.163 443.942 387.653L445.835 384.725C446.901 383.075 449.357 383.225 450.219 384.989L451.243 387.095C451.519 387.653 452.25 387.797 452.711 387.377L454.316 385.919C455.658 384.701 457.814 385.493 458.054 387.287L458.227 388.565C458.311 389.165 458.934 389.531 459.497 389.309L462.144 388.265C463.223 387.839 464.319 388.847 463.989 389.963L463.75 390.767C463.54 391.469 464.181 392.129 464.888 391.937L467.595 391.199C469.685 390.629 471.32 393.023 470.033 394.769L469.326 395.729C468.889 396.317 469.272 397.157 470.003 397.217L473.92 397.535C475.998 397.703 476.843 400.301 475.262 401.663L474.046 402.707C473.453 403.217 473.71 404.189 474.477 404.333L476.465 404.723C477.574 404.939 477.843 406.397 476.891 407.003L476.046 407.537C475.339 407.987 475.531 409.067 476.352 409.241L477.651 409.517C479.059 409.817 479.185 411.779 477.825 412.259L476.226 412.823C475.483 413.087 475.375 414.089 476.046 414.503L477.556 415.433C479.047 416.357 478.526 418.649 476.783 418.829L475.429 418.967C474.717 419.039 474.351 419.855 474.764 420.437L475.651 421.697C476.477 422.867 475.321 424.409 473.968 423.947L472.482 423.437C471.848 423.221 471.195 423.725 471.249 424.397L471.392 426.191C471.47 427.175 470.422 427.847 469.571 427.361L468.613 426.815C468.044 426.491 467.325 426.845 467.23 427.493L467.152 428.039C466.96 429.329 465.367 429.839 464.468 428.891L463.72 428.105C463.211 427.571 462.318 427.805 462.138 428.525L461.797 429.893C461.366 431.627 459.066 432.011 458.101 430.505L457.407 429.419C457.029 428.831 456.167 428.849 455.813 429.449L455.622 429.773C455.25 430.403 454.334 430.385 453.993 429.737C453.657 429.101 452.759 429.071 452.375 429.677L452.088 430.139C451.663 430.811 450.65 430.685 450.405 429.929L450.153 429.137C449.992 428.627 449.435 428.357 448.931 428.549L447.494 429.095C446.811 429.353 446.11 428.765 446.242 428.051L446.326 427.607C446.446 426.953 445.871 426.389 445.218 426.521L443.72 426.827C443.098 426.953 442.529 426.437 442.606 425.801L442.666 425.261C442.744 424.607 442.145 424.085 441.51 424.247L439.63 424.727C438.857 424.925 438.204 424.121 438.563 423.401L438.677 423.179C438.995 422.537 438.51 421.787 437.791 421.829L436.03 421.925C434.802 421.991 433.916 420.773 434.359 419.621L434.652 418.847C434.862 418.295 434.514 417.689 433.933 417.587L431.238 417.143C430.154 416.963 429.891 415.523 430.837 414.971C431.586 414.533 431.388 413.405 430.537 413.243L429.226 412.997C427.77 412.727 427.477 410.759 428.794 410.081L429.076 409.931C429.831 409.541 429.717 408.425 428.896 408.197L428.195 408.005C426.644 407.579 426.728 405.347 428.303 405.035C429.184 404.861 429.334 403.667 428.531 403.277L426.854 402.467C425.68 401.897 426.087 400.127 427.393 400.133L429.094 400.145C429.92 400.151 430.346 399.155 429.771 398.561L428.956 397.721C428.303 397.061 428.878 395.981 429.771 396.137Z" fill="#FFF3A1"/>
<path d="M456.551 416.208L455.354 416.212L455.379 424.366L456.577 424.362L456.551 416.208Z" fill="black"/>
<path d="M456.479 393.347L455.281 393.351L455.307 401.697L456.505 401.693L456.479 393.347Z" fill="black"/>
<path d="M460.911 414.965L460.006 415.751L466.244 422.96L467.149 422.174L460.911 414.965Z" fill="black"/>
<path d="M445.351 393.055L444.308 393.646L448.757 401.534L449.8 400.944L445.351 393.055Z" fill="black"/>
<path d="M467.777 398.159L459.692 403.314L460.336 404.327L468.42 399.172L467.777 398.159Z" fill="black"/>
<path d="M433.261 399.44L432.853 400.568L443.55 404.456L443.959 403.328L433.261 399.44Z" fill="black"/>
<path d="M461.474 409.715L461.303 410.902L473.022 412.602L473.194 411.415L461.474 409.715Z" fill="black"/>
<path d="M450.277 414.438L442.825 420.598L443.588 421.524L451.039 415.364L450.277 414.438Z" fill="black"/>
<path d="M448.052 408.579L431.291 410.898L431.455 412.087L448.216 409.768L448.052 408.579Z" fill="black"/>
<path d="M445.379 477.276L444.325 476.7C454.166 458.64 475.519 442.02 475.734 441.852L476.465 442.8C476.262 442.974 455.1 459.438 445.379 477.276Z" fill="black"/>
<path d="M424.446 472.565C411.317 453.851 400.691 446.987 393.659 442.445C392.833 441.911 392.048 441.407 391.317 440.915L391.982 439.919C392.707 440.405 393.486 440.909 394.312 441.437C401.422 446.027 412.167 452.969 425.428 471.875L424.446 472.565Z" fill="black"/>
<path d="M317.268 481.524L316.1 481.266C317.388 475.404 317.28 472.872 316.969 471.786C316.597 470.502 315.998 469.752 315.184 469.566C314.1 469.314 312.584 470.076 311.237 471.552C309.985 472.926 308.422 473.436 307.05 472.908C305.672 472.38 304.804 470.94 304.786 469.146C304.696 459.798 302.881 452.496 299.234 446.814C298.197 445.2 296.67 444.234 295.436 444.414C294.658 444.528 294.095 445.098 293.813 446.07C293.55 446.964 292.411 449.832 288.662 449.106C284.793 448.356 281.361 442.044 279.516 438.654C279.24 438.15 279.019 437.736 278.845 437.442C277.617 435.36 276.006 434.496 274.185 434.934C270.837 435.738 267.639 440.52 267.345 445.164C267.219 447.168 267.267 449.748 267.477 452.064L266.285 452.172C266.069 449.796 266.021 447.15 266.153 445.086C266.483 439.878 270.034 434.694 273.91 433.764C276.258 433.2 278.378 434.286 279.881 436.83C280.061 437.136 280.295 437.562 280.576 438.084C282.199 441.072 285.583 447.294 288.902 447.936C291.477 448.434 292.37 446.772 292.675 445.74C293.094 444.306 294.023 443.412 295.281 443.232C296.994 442.98 298.946 444.138 300.252 446.172C304.025 452.046 305.9 459.558 305.996 469.14C306.008 470.43 306.583 471.444 307.487 471.792C308.392 472.14 309.44 471.762 310.362 470.748C312.027 468.918 313.938 468.042 315.465 468.402C316.334 468.606 317.508 469.302 318.131 471.456C318.628 473.226 318.34 476.616 317.268 481.524Z" fill="black"/>
<path d="M299.024 494.519C298.425 472.115 290.063 455.507 289.979 455.339L291.046 454.793C291.129 454.961 299.617 471.797 300.222 494.489L299.024 494.519Z" fill="black"/>
<path d="M317.436 499.686C317.202 499.686 316.975 499.686 316.735 499.68L316.753 498.48C323.773 498.594 328.984 497.028 331.374 494.07C332.709 492.42 333.117 490.386 332.577 488.028C331.931 485.19 330.062 483.126 327.175 482.064C321.916 480.126 313.962 481.812 308.266 486.072C301.438 491.178 297.52 499.344 297.485 499.428L296.4 498.912C296.562 498.564 300.485 490.392 307.547 485.112C313.644 480.552 321.886 478.836 327.588 480.942C330.876 482.154 333.003 484.512 333.745 487.77C334.362 490.47 333.859 492.912 332.302 494.838C329.768 497.97 324.498 499.686 317.436 499.686Z" fill="black"/>
<path d="M296.347 499.229C295.155 488.159 292.256 481.205 290.028 477.317C287.626 473.117 285.475 471.503 285.452 471.485C284.841 471.047 284.343 470.855 284.05 470.945C283.655 471.071 283.391 471.821 283.158 472.475C282.87 473.297 282.594 474.071 281.912 474.341C281.54 474.485 281.133 474.443 280.702 474.209C279.725 473.687 279.378 472.601 278.863 470.951C277.941 468.029 276.401 463.139 269.849 455.921C268.046 453.935 261.733 447.557 256.318 448.949C254.887 449.315 253.862 450.245 253.581 451.427C253.275 452.687 252.143 453.503 250.88 453.359C249.083 453.155 244.609 452.933 241.931 455.141C240.661 456.191 239.943 457.679 239.793 459.569C239.29 465.905 247.43 468.719 253.976 470.981C257.235 472.103 260.044 473.075 261.218 474.335C261.793 474.947 261.823 475.553 261.745 475.949C261.433 477.587 258.702 478.889 256.51 479.933C255.725 480.305 254.989 480.659 254.659 480.899C253.677 481.613 252.677 482.921 253.102 484.265C253.425 485.309 255.162 487.763 264.177 487.943C272.292 488.111 277.168 491.021 279.827 493.433C282.738 496.073 283.697 498.665 283.739 498.773L282.612 499.181C282.577 499.085 278.881 489.437 264.153 489.137C255.18 488.951 252.569 486.575 251.958 484.613C251.455 483.005 252.239 481.157 253.958 479.915C254.378 479.615 255.09 479.273 256.001 478.841C257.636 478.061 260.379 476.753 260.571 475.715C260.595 475.589 260.589 475.409 260.343 475.145C259.373 474.101 256.564 473.135 253.587 472.103C247.016 469.835 238.02 466.727 238.601 459.461C238.781 457.235 239.643 455.471 241.171 454.205C244.093 451.787 248.592 451.883 251.011 452.153C251.664 452.231 252.257 451.799 252.419 451.133C252.808 449.507 254.156 448.253 256.025 447.773C257.983 447.269 263.356 446.975 270.735 455.099C277.467 462.515 279.061 467.561 280.007 470.579C280.45 471.989 280.72 472.847 281.271 473.135C281.409 473.207 281.474 473.213 281.486 473.207C281.66 473.141 281.906 472.439 282.037 472.061C282.361 471.137 282.732 470.087 283.703 469.781C284.391 469.565 285.194 469.799 286.164 470.495C286.536 470.765 295.203 477.317 297.544 499.079L296.347 499.229Z" fill="black"/>
<path d="M301.701 499.607L300.887 498.731C310.913 489.371 322.192 486.426 322.305 486.396L322.599 487.56C322.491 487.584 311.494 490.464 301.701 499.607Z" fill="black"/>
<path d="M287.86 499.08C287.842 480.366 257.948 460.992 257.648 460.8L258.295 459.786C258.373 459.834 266.052 464.784 273.623 472.032C283.859 481.824 289.052 490.926 289.058 499.08H287.86Z" fill="black"/>
<path d="M835.229 243.192H698.811C696.241 243.192 694.103 242.262 692.629 240.504C691.342 238.968 690.629 236.874 690.629 234.6C690.629 230.064 693.6 225.246 699.11 225.246H708.861C709.837 225.246 710.544 224.976 711.023 224.424C712.617 222.594 711.934 217.692 711.077 211.482C710.838 209.766 710.592 207.99 710.371 206.106L710.329 205.764C709.466 198.558 707.675 183.564 722.871 178.104C728.735 175.998 731.64 175.188 736.916 173.73C738.288 173.352 739.821 172.926 741.618 172.416C746.32 171.09 749.77 171.054 752.813 172.302C756.52 173.82 759.533 177.324 762.013 183.006C765.319 190.584 768.056 192.918 772.465 191.916C801.856 185.226 806.545 197.274 811.079 208.926C811.361 209.646 811.637 210.36 811.924 211.074C814.871 218.436 818.453 225.246 824.646 225.246H834.93C840.674 225.246 843.675 229.842 843.675 234.378C843.675 238.626 841.033 243.192 835.229 243.192ZM699.11 226.452C694.33 226.452 691.827 230.556 691.827 234.606C691.827 236.592 692.438 238.416 693.546 239.736C694.786 241.212 696.606 241.998 698.811 241.998H835.229C840.213 241.998 842.477 238.05 842.477 234.384C842.477 230.562 840.117 226.452 834.93 226.452H824.646C817.734 226.452 813.912 219.276 810.81 211.524C810.522 210.81 810.241 210.09 809.959 209.37C807.785 203.784 805.533 198 800.376 194.562C794.548 190.668 785.498 190.188 772.722 193.098C766.948 194.412 763.917 190.398 760.905 183.498C755.981 172.218 749.758 171.378 741.936 173.586C740.139 174.09 738.599 174.522 737.228 174.9C731.813 176.4 729.094 177.156 723.266 179.25C708.969 184.386 710.682 198.738 711.509 205.638L711.55 205.98C711.772 207.852 712.018 209.622 712.251 211.338C713.186 218.1 713.862 222.99 711.916 225.228C711.203 226.044 710.173 226.458 708.849 226.458H699.11V226.452Z" fill="black"/>
<path d="M438.342 256.2H328.553C326.469 256.2 324.732 255.558 323.522 254.352C322.444 253.272 321.851 251.796 321.851 250.194C321.851 247.032 324.282 243.672 328.793 243.672H336.639C337.483 243.672 338.07 243.462 338.43 243.036C339.49 241.788 338.939 238.458 338.304 234.6C338.112 233.436 337.915 232.236 337.735 230.958L337.705 230.724C337.004 225.786 335.549 215.52 347.905 211.782C352.631 210.354 354.973 209.808 359.22 208.818C360.322 208.56 361.556 208.272 362.993 207.93C368.887 206.532 374.972 206.442 379.5 215.172C381.812 219.618 383.819 221.886 387.82 221.118C411.527 216.582 415.324 224.784 418.996 232.716C419.223 233.202 419.445 233.688 419.672 234.168C422.02 239.106 424.877 243.672 429.819 243.672H438.09C442.786 243.672 445.248 246.876 445.248 250.044C445.26 253.008 443.098 256.2 438.342 256.2ZM328.799 244.872C325.031 244.872 323.054 247.548 323.054 250.194C323.054 251.472 323.522 252.648 324.372 253.5C325.349 254.478 326.798 255 328.553 255H438.342C442.271 255 444.062 252.432 444.062 250.044C444.062 247.554 442.199 244.872 438.102 244.872H429.831C424.225 244.872 421.122 239.976 418.6 234.684C418.373 234.198 418.145 233.712 417.917 233.226C414.276 225.366 410.844 217.938 388.047 222.3C383.358 223.2 380.896 220.452 378.44 215.724C374.517 208.17 369.534 207.612 363.269 209.094C361.825 209.436 360.591 209.724 359.489 209.982C355.129 211.002 352.937 211.512 348.247 212.928C336.872 216.366 338.184 225.594 338.885 230.55L338.921 230.784C339.101 232.05 339.298 233.244 339.484 234.402C340.221 238.89 340.754 242.136 339.34 243.81C338.741 244.512 337.831 244.872 336.633 244.872H328.799Z" fill="black"/>
<path d="M433.79 479.802C432.855 474.93 431.921 467.706 431.915 467.634L433.101 467.478C433.107 467.55 434.035 474.738 434.964 479.574L433.79 479.802Z" fill="black"/>
<path d="M978.836 498.479H244.938V499.68H978.836V498.479Z" fill="black"/>
<path d="M438.898 498.504H637.291V416.917C637.291 416.917 487.384 467.088 437.269 482.712C426.746 485.994 426.56 498.504 438.898 498.504Z" fill="#EC8C92"/>
<path d="M885.644 452.658L927.523 480.805C933.597 480.805 937.879 474.84 935.938 469.074L903.834 373.428C900.234 362.694 888.561 356.988 877.899 360.738L795.537 389.724C707.891 424.41 785.025 477.877 799.568 472.171L865.333 446.377C872.736 443.479 881.164 446.082 885.644 452.658Z" fill="#EC8C92"/>
<path d="M903.839 373.422C900.24 362.688 888.566 356.982 877.904 360.732L809.617 384.768C818.614 398.4 829.443 432.234 834.025 458.658L865.338 446.376C872.741 443.472 881.163 446.076 885.649 452.652L907.697 471.48C909.446 473.742 927.528 480.798 927.528 480.798C933.602 480.798 937.884 474.834 935.943 469.068L903.839 373.422Z" fill="#FFF3A1"/>
<path d="M594.364 406.422L687.832 480.36L680.243 498.504H735.455C740.354 498.504 745.721 498.504 749.53 498.504H766.397C787.049 498.504 803.79 481.734 803.79 461.046V362.73C803.79 322.866 773.249 317.022 744.463 305.7L594.364 389.928V406.422Z" fill="#274D76"/>
<path d="M506.323 493.273H505.125C505.125 490.087 506.275 487.009 508.359 484.603L514.78 477.205L515.685 477.991L509.264 485.389C507.371 487.573 506.323 490.375 506.323 493.273Z" fill="black"/>
<path d="M486.893 493.272H485.695C485.695 490.518 486.27 486.762 489.008 484.53C493.602 480.78 505.024 471.84 505.137 471.75L505.874 472.698C505.76 472.788 494.344 481.722 489.762 485.466C487.39 487.398 486.893 490.776 486.893 493.272Z" fill="black"/>
<path d="M461.521 493.272H460.323C460.323 490.122 460.323 486.21 466.942 482.904C473.273 479.748 489.942 471.756 490.109 471.678L490.625 472.758C490.457 472.836 473.8 480.822 467.475 483.978C461.521 486.948 461.521 490.308 461.521 493.272Z" fill="black"/>
<path d="M935.944 469.068L929.355 449.442L927.223 443.088L923.545 432.132L920.946 424.392L903.833 373.416C900.611 363.81 890.92 358.236 881.277 359.862L903.971 420.66C895.807 419.346 886.47 418.554 876.85 419.136C872.64 398.07 865.314 379.398 859.732 367.122L849.46 370.74C856.839 386.904 867.914 415.71 869.291 445.356C873.083 444.846 876.91 445.638 880.163 447.546C880.001 441.576 879.48 435.654 878.671 429.858C886.482 429.486 894.142 430.116 901.006 431.16C905.528 431.85 909.314 434.964 910.913 439.26L912.033 442.254C899.443 445.986 891.609 450.888 887.11 454.548L893.699 463.068C895.202 461.82 897.341 460.266 900.264 458.634C903.48 456.84 907.99 454.782 914.028 452.922C915.028 452.616 916.1 453.138 916.465 454.122L917.603 457.17C920.191 464.1 915.076 471.48 907.691 471.48L927.522 480.798C933.596 480.798 937.878 474.834 935.944 469.068Z" fill="#274D76"/>
<path d="M900.971 470.364L919.97 494.922C921.719 497.184 924.42 498.51 927.277 498.51H942.85C948.923 498.51 953.206 492.54 951.265 486.78L919.161 391.134C915.561 380.4 903.888 374.694 893.226 378.444L810.863 407.43C807.407 408.648 803.784 406.074 803.784 402.408V341.874C803.784 319.698 786.174 301.212 764.037 300.924C741.546 300.63 723.218 318.81 723.218 341.274V470.106C723.218 485.79 735.91 498.51 751.573 498.51H769.266C784.881 498.51 800.358 495.582 814.894 489.882L880.66 464.088C888.063 461.184 896.49 463.782 900.971 470.364Z" fill="#274D76"/>
<path d="M553.713 451.591L534.54 448.554C529.341 447.732 524.292 450.745 522.543 455.719L517.212 470.863C517.152 471.037 517.098 471.211 517.044 471.385C515.625 476.443 519.656 481.404 524.897 481.38L546.19 481.279L553.713 451.591Z" fill="#F2BDBA"/>
<path d="M919.168 391.128C915.568 380.394 903.894 374.688 893.233 378.438L810.87 407.424C808.079 408.408 805.18 406.914 804.168 404.37L795.225 420.186L740.354 496.182C743.799 497.67 747.59 498.498 751.573 498.498H769.266C784.881 498.498 800.358 495.57 814.895 489.87L880.661 464.076C888.064 461.172 896.485 463.776 900.971 470.352L919.97 494.91C921.719 497.172 924.421 498.498 927.278 498.498H942.85C948.924 498.498 953.206 492.528 951.266 486.768L919.168 391.128Z" fill="#F2BDBA"/>
<path d="M681.734 345.487L681.261 345.396C662.969 341.904 645.311 353.935 641.825 372.259L630.715 433.213C629.672 438.697 625.396 442.987 619.921 444.037C619.921 444.037 546.321 456.361 534.426 457.627C525.723 458.551 524.04 466.423 528.928 473.329C525.37 476.185 526.226 485.887 532.216 488.551C529.239 494.353 533.246 501.127 538.577 503.353C534.043 510.085 543.542 519.025 554.671 517.639C581.714 514.273 641.49 506.929 671.438 502.273C681.147 500.761 688.233 491.845 690.107 481.969L708.549 384.991C712.035 366.667 700.032 348.979 681.734 345.487Z" fill="#F2BDBA"/>
<path d="M764.96 407.593C763.6 407.593 762.247 407.269 761.007 406.621L746.32 398.923C741.475 396.385 738.462 391.399 738.462 385.921V349.927C738.462 346.015 741.642 342.829 745.548 342.829H784.372C788.277 342.829 791.458 346.015 791.458 349.927V385.921C791.458 391.399 788.445 396.385 783.599 398.923L768.907 406.621C767.673 407.269 766.313 407.593 764.96 407.593ZM745.548 344.023C742.301 344.023 739.66 346.669 739.66 349.921V385.915C739.66 390.949 742.427 395.521 746.877 397.855L761.564 405.553C763.69 406.669 766.23 406.669 768.356 405.553L783.048 397.855C787.499 395.521 790.266 390.949 790.266 385.915V349.921C790.266 346.669 787.624 344.023 784.378 344.023H745.548Z" fill="white"/>
<path d="M765.139 374.899C763.594 374.899 762.151 374.137 761.282 372.865C757.611 367.495 751.543 364.291 745.056 364.291H738.462V349.927C738.462 346.015 741.642 342.829 745.548 342.829H784.372C788.277 342.829 791.458 346.015 791.458 349.927V364.291H785.223C778.736 364.291 772.668 367.495 768.997 372.865C768.122 374.137 766.679 374.899 765.139 374.899ZM739.654 363.085H745.05C751.932 363.085 758.365 366.487 762.264 372.181C762.923 373.141 763.965 373.693 765.133 373.693C766.301 373.693 767.344 373.141 768.002 372.181C771.896 366.487 778.335 363.085 785.217 363.085H790.254V349.921C790.254 346.669 787.612 344.023 784.366 344.023H745.542C742.295 344.023 739.654 346.669 739.654 349.921V363.085Z" fill="white"/>
<path d="M764.984 368.514C762.522 368.514 760.527 366.516 760.527 364.05C760.527 361.584 762.522 359.586 764.984 359.586C767.445 359.586 769.44 361.584 769.44 364.05C769.44 366.51 767.445 368.514 764.984 368.514Z" fill="#FDFDFF"/>
<path d="M773.926 404.1L772.752 403.872C774.07 397.122 774.854 387.612 774.854 378.432C774.854 374.58 774.716 370.776 774.453 367.122L775.645 367.032C775.914 370.716 776.052 374.55 776.052 378.432C776.046 387.678 775.25 397.272 773.926 404.1Z" fill="white"/>
<path d="M757.263 404.766C755.849 397.818 755.005 387.973 755.005 378.427C755.005 374.779 755.125 371.167 755.364 367.687L756.562 367.771C756.323 371.221 756.203 374.809 756.203 378.432C756.203 387.906 757.035 397.662 758.437 404.532L757.263 404.766Z" fill="white"/>
<path d="M919.167 391.128C915.567 380.394 903.893 374.688 893.232 378.438L813.828 406.386C825.67 422.508 838.308 457.734 841.254 479.538L880.666 464.082C888.069 461.178 896.49 463.782 900.976 470.358L919.975 494.916C921.724 497.178 924.426 498.504 927.283 498.504H942.856C948.929 498.504 953.212 492.534 951.271 486.774L919.167 391.128Z" fill="#FFF3A1"/>
<path d="M951.272 486.774L944.683 467.148L942.551 460.794L938.873 449.838L936.274 442.098L919.162 391.122C915.939 381.516 906.248 375.942 896.605 377.568L919.299 438.366C911.135 437.052 901.798 436.26 892.179 436.842C887.968 415.776 880.643 397.104 875.06 384.828L864.788 388.446C872.167 404.61 883.242 433.416 884.62 463.062C888.411 462.552 892.238 463.344 895.491 465.252C895.329 459.282 894.808 453.36 893.999 447.564C901.81 447.192 909.47 447.822 916.334 448.866C920.857 449.556 924.642 452.67 926.241 456.966L927.361 459.96C914.771 463.692 906.937 468.594 902.439 472.254L909.027 480.774C910.531 479.526 912.669 477.972 915.592 476.346C918.808 474.552 923.318 472.494 929.356 470.634C930.356 470.328 931.428 470.85 931.794 471.834L932.932 474.882C935.519 481.812 930.404 489.192 923.019 489.192H915.538L919.97 494.922C921.719 497.184 924.42 498.51 927.277 498.51H942.85C948.924 498.504 953.206 492.54 951.272 486.774Z" fill="#274D76"/>
<path d="M530.605 473.217L530.31 474.38L542.669 477.527L542.964 476.364L530.605 473.217Z" fill="black"/>
<path d="M535.106 489.47L534.811 490.633L546.17 493.53L546.465 492.367L535.106 489.47Z" fill="black"/>
<path d="M540.82 504.024L540.502 505.181L549.545 507.676L549.863 506.519L540.82 504.024Z" fill="black"/>
<path d="M884.735 380.847L811.612 406.549L812.009 407.682L885.132 381.979L884.735 380.847Z" fill="black"/>
<path d="M808.306 407.67C806.072 407.328 804.197 405.552 803.855 403.188L723.224 442.224V470.106C723.224 485.49 735.436 498.012 750.68 498.486L808.306 407.67Z" fill="#93B4F6"/>
<path d="M548.694 459.78C545.825 459.864 542.812 459.156 542.357 456.474C541.62 452.19 540.59 439.248 540.59 439.248L549.538 436.752L554.905 453.978C555.588 457.896 552.767 459.666 548.694 459.78Z" fill="black"/>
<path d="M559.547 404.076C555.18 386.808 545.082 374.472 536.978 376.53L523.16 380.034C531.258 377.982 541.362 390.312 545.729 407.58C550.095 424.848 547.065 440.514 538.961 442.566L552.779 439.062C560.883 437.01 563.913 421.344 559.547 404.076Z" fill="black"/>
<path d="M538.949 442.554C547.049 440.5 550.079 424.837 545.715 407.571C541.352 390.305 531.248 377.973 523.148 380.027C515.048 382.081 512.019 397.744 516.382 415.01C520.745 432.276 530.849 444.608 538.949 442.554Z" fill="#274D76"/>
<path d="M533.013 383.568C529.15 388.908 528.245 399.954 531.252 411.858C534.157 423.36 539.895 432.414 545.633 435.594C548.28 429.006 548.52 418.626 545.729 407.58C543.051 396.99 538.218 388.266 533.013 383.568Z" fill="#74BAAB"/>
<path d="M536.271 438.774C529.276 435.702 523.567 427.23 520.615 415.53C516.733 400.158 518.83 386.803 525.712 383.041L526.287 384.096C519.98 387.54 518.087 400.639 521.777 415.243C524.64 426.576 530.102 434.755 536.751 437.677L536.271 438.774Z" fill="#FAFCFC"/>
<path d="M620.58 417.216C618.867 410.964 616.339 400.782 614.135 391.722C617.495 390.87 619.993 387.828 619.993 384.198C619.993 379.908 616.519 376.428 612.237 376.428H610.458C609.889 374.028 609.547 372.588 609.547 372.588H567.435V423.954C567.435 433.632 575.263 441.474 584.924 441.474H600.988C612.171 441.474 624.078 430.008 620.58 417.216Z" fill="#F2BDBA"/>
<path d="M577.419 332.364C577.419 332.364 573.496 315.966 573.939 308.298C574.347 301.176 581.738 296.826 587.5 298.278C594.382 300.018 592.441 309.276 596.538 311.742C601.947 314.994 607.894 309.216 615.657 313.008C625.384 317.76 621.568 334.314 594.262 339.54C590.123 340.332 585.835 339.78 582.019 337.986C582.001 337.98 581.995 337.974 581.995 337.974C579.51 336.984 577.791 334.872 577.419 332.364Z" fill="#274D76"/>
<path d="M558.708 374.761C569.094 378.805 593.394 385.483 625.749 376.429C628.247 375.733 628.642 372.349 626.372 371.095C612.351 363.349 597.269 355.279 592.753 352.867C591.908 352.417 590.896 352.417 590.052 352.861L558.421 369.505C556.228 370.657 556.402 373.861 558.708 374.761Z" fill="#FFF3A1"/>
<path d="M612.836 363.162C612.878 361.536 612.794 359.028 612.71 358.248C611.53 347.25 602.234 338.688 590.938 338.688C578.845 338.688 569.04 348.51 569.04 360.624V363.162C579.917 366.804 601.216 368.304 612.836 363.162Z" fill="#93B4F6"/>
<path d="M590.938 338.688C581.72 338.688 573.838 344.395 570.609 352.471C581.361 355.603 600.006 356.785 611.315 352.591C608.116 344.455 600.198 338.688 590.938 338.688Z" fill="#FFF3A1"/>
<path d="M571.358 330.12C565.692 325.554 563.308 320.256 562.308 316.62C561.224 312.666 561.481 309.816 561.493 309.696L562.685 309.81C562.673 309.918 561.775 320.862 572.113 329.184L571.358 330.12Z" fill="#274D76"/>
<path d="M571.801 328.596C566.59 317.85 568.189 308.814 568.261 308.436L569.441 308.658C569.423 308.748 567.854 317.7 572.885 328.074L571.801 328.596Z" fill="#274D76"/>
<path d="M571.112 325.734C572.562 325.338 574.053 326.214 574.424 327.672L574.874 329.466C575.053 330.168 575.509 330.774 576.132 331.14L582.78 334.992C585.571 336.606 593.004 342.702 590.429 344.646C589.572 345.324 588.428 345.51 587.404 345.15C584.481 344.112 582.612 343.434 580.594 342.732C577.779 341.748 575.407 339.786 573.897 337.212L569.543 329.766C568.585 328.224 569.375 326.208 571.112 325.734Z" fill="#274D76"/>
<path d="M579.336 331.146C579.336 331.146 580.786 314.796 583.517 307.854C586.057 301.404 594.065 299.664 598.833 302.784C604.529 306.51 599.947 314.46 602.905 318C606.805 322.674 613.95 319.164 619.814 325.062C627.157 332.442 618.682 346.542 592.43 342.972C588.417 342.432 578.875 336.996 579.336 331.146Z" fill="white"/>
<path d="M591.375 404.515L590.507 403.693C590.663 403.525 594.412 399.643 601.138 401.497L600.821 402.655C594.819 401.005 591.513 404.371 591.375 404.515Z" fill="black"/>
<path d="M602.983 394.314C602.491 394.272 600.078 394.038 597.748 393.786C593.459 393.33 592.824 393.258 592.741 392.844C592.663 392.754 592.597 392.646 592.549 392.532C592.387 392.124 592.495 391.668 592.818 391.38L598.203 386.502L599.006 387.39L593.795 392.106C595.268 392.352 601.988 393.024 603.084 393.114L602.983 394.314ZM593.495 391.986L593.525 393.174C593.693 393.12 593.897 392.946 593.921 392.664C593.938 392.448 593.843 392.274 593.723 392.172L593.609 392.274C593.645 392.244 593.669 392.184 593.657 392.124C593.615 392.094 593.579 392.076 593.537 392.07C593.561 392.076 593.597 392.088 593.645 392.094C593.627 392.022 593.555 391.986 593.495 391.986C593.501 391.986 593.501 391.986 593.495 391.986Z" fill="black"/>
<path d="M577.773 398.4C575.749 398.4 574.107 396.75 574.107 394.728V391.86C574.107 389.832 575.755 388.188 577.773 388.188C579.798 388.188 581.439 389.838 581.439 391.86V394.728C581.439 396.756 579.798 398.4 577.773 398.4ZM577.773 389.382C576.413 389.382 575.305 390.493 575.305 391.855V394.722C575.305 396.084 576.413 397.194 577.773 397.194C579.133 397.194 580.241 396.084 580.241 394.722V391.855C580.241 390.493 579.133 389.382 577.773 389.382Z" fill="black"/>
<path d="M574.089 412.698H572.892V428.922H574.089V412.698Z" fill="black"/>
<path d="M583.283 416.13H582.085V434.526H583.283V416.13Z" fill="black"/>
<path d="M593.364 414.715L592.166 414.733L592.524 438.197L593.722 438.178L593.364 414.715Z" fill="black"/>
<path d="M603.419 412.684L602.222 412.724L602.969 434.995L604.166 434.954L603.419 412.684Z" fill="black"/>
<path d="M611.169 405.578L609.98 405.726L612.643 427.281L613.832 427.133L611.169 405.578Z" fill="black"/>
<path d="M681.735 345.487L681.262 345.396C662.969 341.904 645.312 353.935 641.826 372.259L630.715 430.693C630.542 431.593 630.086 432.93 629.523 434.232C638.071 440.994 680.657 473.736 690.27 481.146L708.556 384.985C712.036 366.667 700.033 348.979 681.735 345.487Z" fill="#93B4F6"/>
<path d="M782.9 418.382L730.883 450.315L731.509 451.338L783.526 419.405L782.9 418.382Z" fill="black"/>
<path d="M774.694 432.475L729.146 474.528L729.958 475.41L775.506 433.358L774.694 432.475Z" fill="black"/>
<path d="M784.518 432.391L753.87 475.424L754.845 476.121L785.493 433.088L784.518 432.391Z" fill="black"/>
<path d="M641.302 429.8L640.631 430.794L681.129 458.21L681.799 457.216L641.302 429.8Z" fill="black"/>
<path d="M641.987 417.119L641.352 418.137L674.723 439.04L675.358 438.023L641.987 417.119Z" fill="black"/>
<path d="M669.647 425.268L669.052 426.309L685.659 435.835L686.254 434.793L669.647 425.268Z" fill="black"/>
<path d="M723.823 360.48H722.625V465.469H723.823V360.48Z" fill="black"/>
<path d="M592.315 367.086C584.697 367.086 577.006 366.084 571.244 364.56L571.55 363.402C581.516 366.036 597.335 367.092 608.296 364.002L608.619 365.16C603.809 366.51 598.083 367.086 592.315 367.086Z" fill="black"/>
<path d="M526.838 482.928C525.646 479.172 526.203 475.224 528.143 473.244C525.604 469.422 524.939 465.288 526.376 462.096C527.664 459.246 530.497 457.446 534.367 457.038L534.492 458.232C531.066 458.598 528.569 460.146 527.467 462.594C526.149 465.516 526.88 469.404 529.419 472.992L529.749 473.454L529.305 473.808C527.443 475.308 526.868 479.07 527.982 482.574L526.838 482.928Z" fill="black"/>
<path d="M634.267 417.084L633.087 416.868L641.239 372.15C644.779 353.526 662.783 341.262 681.375 344.808L681.848 344.898C689.587 346.374 696.379 350.316 701.488 356.298L700.577 357.078C695.648 351.306 689.089 347.502 681.62 346.074L681.147 345.984C672.456 344.328 663.64 346.158 656.326 351.138C649.013 356.124 644.072 363.66 642.413 372.366L634.267 417.084Z" fill="black"/>
</svg>
