<svg width="460" height="446" viewBox="0 0 460 446" fill="none" xmlns="http://www.w3.org/2000/svg">
<g clip-path="url(#clip0_906_730)">
<path d="M119.222 551.158C136.153 531.46 136.896 507.903 137.631 485.152C138.275 465.35 138.89 446.649 149.061 428.778C177.306 379.398 195.124 350.944 171.662 310.307C148.2 269.67 114.616 270.837 57.7124 270.538C37.1115 270.422 20.5525 261.546 3.05496 252.196C-17.0239 241.462 -37.7513 230.346 -63.2483 235.11C-72.5658 236.614 -81.523 239.835 -89.6642 244.61C-124.119 264.503 -136.31 308.133 -118.757 338.537C-101.203 368.941 -62.7449 400.142 -42.9939 434.352C-23.2429 468.561 -15.7732 516.909 2.00023 547.694C19.7737 578.478 63.3808 589.262 97.8358 569.369C106.028 564.672 113.279 558.497 119.222 551.158Z" fill="#FFFF66" fill-opacity="0.5"/>
<path d="M0.599305 201.518C15.7008 227.674 55.2055 233.138 88.8355 213.722C122.465 194.306 137.486 157.362 122.384 131.205C107.283 105.048 67.7779 99.5842 34.148 119C0.518017 138.417 -14.5022 175.361 0.599305 201.518Z" fill="#FFFF66" fill-opacity="0.5"/>
<path d="M136.477 249.364C151.578 275.52 191.083 280.984 224.713 261.568C258.343 242.152 273.363 205.208 258.262 179.051C243.16 152.895 203.655 147.43 170.025 166.847C136.395 186.263 121.375 223.207 136.477 249.364Z" fill="#FFFF66" fill-opacity="0.5"/>
<path d="M206.789 371.149C221.891 397.305 261.395 402.77 295.025 383.353C328.655 363.937 343.676 326.993 328.574 300.836C313.472 274.68 273.968 269.216 240.338 288.632C206.708 308.048 191.688 344.992 206.789 371.149Z" fill="#FFFF66" fill-opacity="0.5"/>
<path d="M180.287 512.745C195.388 538.902 234.893 544.366 268.523 524.95C302.153 505.533 317.173 468.589 302.072 442.433C286.97 416.276 247.465 410.812 213.835 430.228C180.206 449.644 165.185 486.588 180.287 512.745Z" fill="#FFFF66" fill-opacity="0.5"/>
</g>
<defs>
<clipPath id="clip0_906_730">
<rect width="500" height="500" fill="white" transform="translate(209.013) rotate(60)"/>
</clipPath>
</defs>
</svg>
