<svg width="688" height="611" viewBox="0 0 688 611" fill="none" xmlns="http://www.w3.org/2000/svg">
<path d="M299.968 559.676C299.968 559.676 410.048 575.379 496.378 506.678C582.708 437.977 606.458 326.286 628.364 236.335C650.27 146.383 603.72 66.3423 517.679 40.6925C431.637 15.0428 394.43 80.2731 288.299 100.876C182.169 121.479 149.888 112.485 75.2947 181.87C0.701699 251.255 17.8879 382.816 112.405 466.498C206.923 550.181 299.968 559.676 299.968 559.676Z" fill="#FFFF66"/>
<path opacity="0.7" d="M299.968 559.676C299.968 559.676 410.048 575.379 496.378 506.678C582.708 437.977 606.458 326.286 628.364 236.335C650.27 146.383 603.72 66.3423 517.679 40.6925C431.637 15.0428 394.43 80.2731 288.299 100.876C182.169 121.479 149.888 112.485 75.2947 181.87C0.701699 251.255 17.8879 382.816 112.405 466.498C206.923 550.181 299.968 559.676 299.968 559.676Z" fill="#FFFF66"/>
<path d="M335.84 525.46C483.269 525.46 602.784 517.527 602.784 507.741C602.784 497.955 483.269 490.022 335.84 490.022C188.411 490.022 68.8964 497.955 68.8964 507.741C68.8964 517.527 188.411 525.46 335.84 525.46Z" fill="#263238"/>
<path d="M190.232 179.072C190.427 178.239 190.698 177.421 191.044 176.628C193.094 172.474 196.435 168.926 200.676 166.4C204.157 164.408 206.868 164.469 210.225 166.644C213.859 169.063 216.707 172.292 218.481 176.004C219.362 177.752 219.857 179.67 217.972 181.235C216.087 182.799 213.844 183.569 211.464 182.603C208.215 181.314 204.535 181.17 201.171 182.2C198.88 182.892 196.433 183.076 194.044 182.738C191.622 182.261 190.328 181.076 190.232 179.072Z" fill="#263238"/>
<path d="M219.376 151.931C219.362 153.496 218.966 155.039 218.215 156.455C217.465 157.871 216.377 159.125 215.027 160.131C214.51 160.575 213.875 160.895 213.18 161.061C212.486 161.227 211.756 161.234 211.057 161.082C210.359 160.929 209.716 160.622 209.188 160.188C208.659 159.755 208.264 159.21 208.037 158.603C206.551 155.451 207.487 152.493 209.496 149.805C210.156 148.911 210.996 148.132 211.973 147.508C212.508 147.078 213.161 146.78 213.866 146.644C214.571 146.508 215.304 146.539 215.992 146.733C216.68 146.927 217.298 147.278 217.786 147.75C218.273 148.223 218.613 148.801 218.77 149.426C219.037 150.248 219.239 151.085 219.376 151.931V151.931Z" fill="#263238"/>
<path d="M205.024 154.4C205.19 156.175 204.6 157.94 203.373 159.349C202.79 160.077 201.911 160.575 200.922 160.737C199.933 160.899 198.912 160.712 198.075 160.216C193.466 157.907 192.145 150.55 195.695 147.068C196.246 146.494 197.003 146.108 197.838 145.974C198.674 145.84 199.535 145.968 200.277 146.334C203.882 148.057 204.873 151.027 205.024 154.4Z" fill="#263238"/>
<path d="M215.633 167.316C215.776 165.681 216.397 164.107 217.435 162.751C218.472 161.394 219.891 160.301 221.55 159.581C222.095 159.372 222.683 159.264 223.277 159.265C223.871 159.265 224.458 159.375 225.003 159.585C225.548 159.796 226.037 160.104 226.442 160.49C226.847 160.876 227.158 161.332 227.357 161.829C229.09 165.667 225.774 171.19 221.192 172.094C220.219 172.302 219.194 172.188 218.308 171.774C217.422 171.361 216.735 170.675 216.376 169.846C216.066 169.018 215.817 168.173 215.633 167.316V167.316Z" fill="#263238"/>
<path d="M183.38 161.902C183.366 161.711 183.366 161.519 183.38 161.328C183.572 159.593 184.081 157.943 186.063 157.186C186.986 156.856 187.997 156.771 188.973 156.94C189.95 157.109 190.85 157.526 191.567 158.139C192.847 159.028 193.849 160.193 194.478 161.524C195.106 162.854 195.341 164.306 195.158 165.74C195.169 166.512 194.929 167.272 194.467 167.927C194.005 168.582 193.341 169.106 192.554 169.436C191.767 169.765 190.889 169.887 190.026 169.786C189.163 169.686 188.351 169.367 187.686 168.868C186.407 168.086 185.351 167.048 184.603 165.839C183.855 164.629 183.436 163.281 183.38 161.902Z" fill="#263238"/>
<path d="M165.794 220.73C167.377 220.73 168.918 220.73 170.046 220.803L172.385 231.178C172.412 231.433 172.538 231.673 172.741 231.855C172.944 232.038 173.212 232.153 173.5 232.18C174.202 232.18 174.793 231.483 174.491 230.408C172.206 222.795 168.381 205.907 167.06 198.367C166.84 197.145 166.18 196.62 165.464 196.62C164.748 196.62 164.005 197.206 163.772 198.318C161.969 206.518 157.979 226.009 156.492 230.493C156.425 230.668 156.403 230.854 156.428 231.037C156.453 231.221 156.525 231.396 156.637 231.552C156.75 231.707 156.9 231.838 157.078 231.934C157.255 232.03 157.455 232.089 157.662 232.107C158.157 232.107 158.68 231.764 158.832 230.994C159.341 228.245 160.056 224.689 160.868 220.815C162.175 220.754 164.005 220.73 165.794 220.73ZM165.381 199.65C166.358 204.379 168.051 211.944 169.592 218.811C168.491 218.811 167.033 218.872 165.464 218.872C163.895 218.872 162.409 218.872 161.24 218.787C162.657 212.359 164.184 205.296 165.381 199.65Z" fill="#263238"/>
<path d="M183.875 196.571C182.707 196.592 181.543 196.695 180.394 196.876C179.458 196.986 179.018 197.548 179.018 198.538C179.527 205.797 179.554 227.988 179.554 230.604C179.554 231.459 179.706 232.045 180.572 232.045C188.746 232.045 195.708 223.186 195.708 210.905C195.681 201.923 191.952 196.571 183.875 196.571ZM181.797 229.968C181.673 226.461 181.467 216.086 181.467 207.679C181.467 204.172 181.563 200.628 181.659 198.905C182.529 198.669 183.434 198.554 184.343 198.563C188.746 198.563 193.452 201.544 193.452 211.125C193.452 222.331 187.246 229.736 181.797 229.968Z" fill="#263238"/>
<path d="M209.042 196.4C203.043 196.4 199.506 204.624 199.506 213.85C199.506 226.07 202.258 232.486 208.478 232.486C214.697 232.486 218.275 225.789 218.234 213.85C218.192 202.925 215.358 196.4 209.042 196.4ZM208.698 230.384C205.148 230.384 201.625 227.219 201.625 214.351C201.625 206.567 204.281 198.318 209.083 198.318C214.381 198.318 216.128 206.542 216.128 214.119C216.128 226.742 212.468 230.384 208.698 230.384Z" fill="#263238"/>
<path d="M230.893 196.742C228.924 196.79 226.972 197.07 225.086 197.573C224.591 197.707 223.517 197.634 223.6 199.186C223.861 203.487 224.082 204.624 224.082 212.799C224.082 217.687 224.082 227.304 224.082 230.628C224.082 231.52 224.659 231.972 225.21 231.972C225.76 231.972 226.476 231.495 226.448 230.518C226.352 227.06 226.269 224.408 226.201 222.416C232.599 218.897 238.832 213.324 238.832 205.308C238.86 199.479 235.654 196.742 230.893 196.742ZM226.146 220.339C225.939 214.791 225.898 215.353 225.898 212.848C225.898 209.89 225.898 203.622 226.049 199.516C227.594 198.867 229.28 198.525 230.989 198.514C234.305 198.636 236.823 200.762 236.823 205.467C236.823 213.618 230.356 218.066 226.146 220.277V220.339Z" fill="#263238"/>
<path d="M254.422 196.534C249.524 196.656 248.918 196.705 246.455 196.705C243.992 196.705 244.185 196.705 240.759 196.51C240.394 196.51 240.044 196.639 239.786 196.868C239.528 197.097 239.383 197.408 239.383 197.732C239.382 197.884 239.42 198.035 239.492 198.174C239.564 198.312 239.669 198.435 239.8 198.534C239.931 198.633 240.084 198.705 240.25 198.746C240.415 198.787 240.589 198.795 240.759 198.77C243.194 198.612 244.708 198.477 246.442 198.489C246.552 200.628 246.593 203.878 246.593 206.872C246.593 214.07 246.373 220.461 246.373 227.707C246.373 228.685 246.373 229.65 246.373 230.567C246.354 230.728 246.371 230.89 246.423 231.045C246.475 231.199 246.561 231.343 246.676 231.468C246.791 231.593 246.933 231.697 247.094 231.773C247.254 231.849 247.43 231.896 247.611 231.911C248.217 231.911 248.781 231.435 248.767 230.457C248.657 225.153 248.561 220.131 248.561 212.982C248.561 207.569 248.561 201.789 248.739 198.489C250.473 198.489 251.794 198.563 254.532 198.648C255.441 198.648 255.908 198.208 255.908 197.707C255.902 197.542 255.857 197.38 255.778 197.231C255.699 197.082 255.586 196.949 255.448 196.839C255.309 196.729 255.146 196.646 254.97 196.593C254.794 196.541 254.608 196.521 254.422 196.534V196.534Z" fill="#263238"/>
<path d="M121.46 250.18C120.287 250.202 119.119 250.304 117.965 250.486C117.043 250.596 116.589 251.158 116.589 252.135C117.098 259.406 117.111 281.598 117.111 284.213C117.111 285.056 117.276 285.655 118.13 285.655C126.386 285.655 133.266 276.795 133.266 264.514C133.266 255.52 129.523 250.18 121.46 250.18ZM119.382 283.565C119.244 280.058 119.052 269.683 119.052 261.276C119.052 257.769 119.134 254.237 119.23 252.502C120.124 252.267 121.051 252.152 121.982 252.16C126.372 252.16 131.092 255.154 131.092 264.734C131.036 275.94 124.817 283.333 119.382 283.565V283.565Z" fill="#263238"/>
<path d="M146.613 250.009C140.627 250.009 137.091 258.233 137.091 267.459C137.091 279.679 139.843 286.082 146.062 286.082C152.282 286.082 155.86 279.386 155.805 267.459C155.763 256.522 152.942 250.009 146.613 250.009ZM146.283 283.993C142.719 283.993 139.21 280.828 139.21 267.96C139.21 260.164 141.866 251.927 146.654 251.927C151.966 251.927 153.713 260.151 153.713 267.716C153.713 280.351 149.984 283.993 146.283 283.993Z" fill="#263238"/>
<path d="M178.109 251.402C178.109 250.485 177.545 250.021 176.899 250.021C176.252 250.021 175.688 250.485 175.688 251.402C176.128 262.73 176.128 274.95 176.5 282.282C174.023 275.927 166.496 256.925 164.515 251.182C164.432 250.876 164.237 250.603 163.961 250.406C163.684 250.209 163.342 250.099 162.987 250.094C162.754 250.1 162.524 250.148 162.313 250.237C162.101 250.325 161.913 250.451 161.759 250.607C161.605 250.763 161.489 250.946 161.419 251.144C161.349 251.341 161.325 251.55 161.35 251.756C161.35 255.007 161.35 259.687 161.35 264.734C161.35 273.068 161.35 279.398 161.13 284.188C161.13 285.153 161.721 285.63 162.341 285.63C162.96 285.63 163.496 285.19 163.496 284.298C163.496 280.424 163.262 267.508 163.194 253.809C167.225 265.382 171.34 273.52 175.137 284.494C175.21 284.776 175.383 285.031 175.631 285.22C175.878 285.409 176.188 285.523 176.513 285.545C176.73 285.538 176.942 285.494 177.139 285.413C177.335 285.332 177.511 285.217 177.656 285.074C177.802 284.932 177.913 284.765 177.984 284.583C178.054 284.401 178.083 284.209 178.068 284.017C177.931 280.461 177.889 274.938 177.889 269.121C177.986 261.508 178.068 256.192 178.109 251.402Z" fill="#263238"/>
<path d="M185.843 245.793C185.591 245.782 185.339 245.821 185.106 245.905C184.872 245.99 184.663 246.119 184.491 246.283C184.319 246.447 184.19 246.642 184.112 246.855C184.034 247.068 184.01 247.293 184.04 247.516C184.04 248.542 185.141 249.178 185.65 248.982C185.63 249.877 185.34 250.75 184.811 251.512C184.585 251.725 184.454 252.002 184.439 252.294C184.423 252.427 184.459 252.56 184.542 252.672C184.625 252.783 184.749 252.866 184.893 252.905C185.292 252.99 185.801 252.648 186.269 251.939C187.119 250.654 187.592 249.201 187.645 247.711C187.687 247.246 187.522 246.784 187.185 246.425C186.848 246.066 186.366 245.839 185.843 245.793V245.793Z" fill="#263238"/>
<path d="M205.299 250.131C200.414 250.265 199.795 250.302 197.346 250.302C194.897 250.302 195.062 250.302 191.636 250.106C191.271 250.106 190.921 250.235 190.663 250.464C190.404 250.694 190.26 251.004 190.26 251.328C190.26 251.481 190.297 251.633 190.369 251.772C190.441 251.911 190.545 252.034 190.676 252.134C190.807 252.234 190.96 252.308 191.126 252.35C191.291 252.392 191.465 252.402 191.636 252.379C194.085 252.221 195.598 252.074 197.318 252.098C197.442 254.237 197.47 257.475 197.47 260.469C197.47 267.679 197.25 274.07 197.25 281.243C197.25 282.233 197.25 283.186 197.25 284.103C197.229 284.264 197.244 284.428 197.295 284.584C197.347 284.74 197.432 284.886 197.548 285.012C197.663 285.138 197.806 285.243 197.967 285.32C198.129 285.396 198.306 285.444 198.488 285.459C199.08 285.459 199.658 284.982 199.63 283.993C199.52 278.689 199.437 273.679 199.437 266.518C199.437 261.117 199.437 255.337 199.616 252.025C201.336 252.025 202.671 252.111 205.409 252.184C206.317 252.184 206.785 251.756 206.785 251.255C206.771 251.094 206.722 250.938 206.64 250.794C206.557 250.651 206.444 250.523 206.306 250.418C206.167 250.314 206.007 250.235 205.835 250.185C205.662 250.136 205.48 250.118 205.299 250.131Z" fill="#263238"/>
<path d="M219.775 257.488C219.775 253.651 222.031 251.744 224.659 251.744C225.249 251.748 225.831 251.859 226.37 252.071C226.908 252.283 227.392 252.591 227.791 252.976C228.19 253.361 228.495 253.815 228.688 254.31C228.881 254.804 228.957 255.328 228.911 255.85C228.883 256.604 228.801 257.355 228.664 258.099C228.471 259.211 229.021 259.773 229.641 259.773C230.26 259.773 230.92 259.211 231.017 258.025C231.017 257.769 231.017 257.512 231.017 257.268C231.251 252.099 228.099 249.801 224.825 249.801C220.697 249.801 217.504 252.881 217.504 257.622C217.504 267.875 229.338 268.131 229.338 277.516C229.338 281.805 227.301 284.237 224.054 284.237C221.041 284.237 218.963 282.001 218.963 277.932C218.963 276.38 218.811 275.573 217.793 275.573C217.257 275.573 216.679 276.013 216.569 276.991C216.569 277.382 216.569 277.748 216.569 278.127C216.569 282.306 219.321 286.241 223.834 286.241C228.347 286.241 231.581 282.795 231.581 277.357C231.567 266.958 219.775 267.276 219.775 257.488Z" fill="#263238"/>
<path d="M251.368 250.217C251.188 250.235 251.014 250.285 250.855 250.363C250.697 250.441 250.558 250.546 250.445 250.672C250.333 250.798 250.249 250.942 250.2 251.097C250.15 251.252 250.136 251.414 250.157 251.573C250.157 257.072 250.239 258.991 250.239 263.329C250.239 265.675 250.239 267.838 250.239 269.867C249.207 269.977 246.841 270.074 244.529 270.074C242.897 270.103 241.264 270.025 239.644 269.842V266.323C239.644 259.162 239.644 255.239 239.837 251.659C239.876 251.495 239.873 251.326 239.829 251.163C239.785 251 239.701 250.848 239.582 250.718C239.463 250.588 239.313 250.483 239.143 250.411C238.973 250.339 238.787 250.301 238.598 250.301C238.41 250.301 238.224 250.339 238.054 250.411C237.883 250.483 237.734 250.588 237.615 250.718C237.496 250.848 237.412 251 237.368 251.163C237.324 251.326 237.321 251.495 237.36 251.659C237.635 255.239 237.677 258.282 237.677 264.636C237.677 271.968 237.58 279.557 237.429 284.188C237.429 285.08 237.965 285.533 238.557 285.533C239.149 285.533 239.823 285.032 239.796 284.078C239.796 280.803 239.685 276.465 239.658 271.858C241.267 271.715 242.884 271.654 244.501 271.675C246.717 271.675 249.001 271.761 250.239 271.858C250.239 277.129 250.198 281.235 250.116 284.176C250.116 285.093 250.652 285.545 251.203 285.545C251.753 285.545 252.372 285.093 252.331 284.152C252.18 281.708 252.18 278.298 252.18 274.547C252.18 265.626 252.372 257.561 252.524 251.512C252.537 250.657 251.946 250.217 251.368 250.217Z" fill="#263238"/>
<path d="M267.371 250.009C261.371 250.009 257.835 258.233 257.835 267.459C257.835 279.679 260.587 286.082 266.82 286.082C273.053 286.082 276.604 279.386 276.562 267.459C276.576 256.522 273.686 250.009 267.371 250.009ZM267.04 283.993C263.477 283.993 259.968 280.828 259.968 267.96C259.968 260.164 262.61 251.927 267.412 251.927C272.723 251.927 274.471 260.151 274.471 267.716C274.471 280.351 270.797 283.993 267.04 283.993Z" fill="#263238"/>
<path d="M297.216 258.82C297.216 253.076 294.01 250.266 289.263 250.266C287.289 250.307 285.331 250.587 283.442 251.097C282.961 251.219 281.874 251.158 281.956 252.71C282.231 256.999 282.452 258.135 282.452 266.323C282.452 271.211 282.452 280.828 282.452 284.14C282.452 285.032 283.03 285.496 283.58 285.496C284.13 285.496 284.846 285.019 284.818 284.03C284.722 280.583 284.639 277.92 284.571 275.928C290.969 272.433 297.216 266.86 297.216 258.82ZM284.516 273.875C284.309 268.339 284.254 268.889 284.254 266.384C284.254 263.427 284.254 257.17 284.419 253.052C285.964 252.414 287.642 252.073 289.345 252.05C292.662 252.184 295.18 254.298 295.18 259.015C295.152 267.215 288.699 271.663 284.488 273.875H284.516Z" fill="#263238"/>
<path d="M644.119 465.582C644.119 465.582 652.155 467.256 655.925 472.706C659.696 478.156 663.012 484.926 669.149 484.926C675.286 484.926 658.76 488.275 646.954 484.499C635.148 480.723 615.787 478.217 615.787 478.217C615.787 478.217 628.529 466.401 644.119 465.582Z" fill="#242424" stroke="#263238" stroke-linecap="round" stroke-linejoin="round"/>
<path d="M581.305 490.303C581.305 490.303 597.817 497.855 611.054 493.236C624.291 488.617 624.814 476.043 631.845 471.008C638.877 465.973 644.119 465.558 644.119 465.558C644.119 465.558 610.586 469.334 594.06 465.558C583.036 463.203 572.712 458.768 563.788 452.556C559.537 449.623 555.753 447.521 555.753 447.521C555.753 447.521 554.377 460.963 561.422 473.11C565.887 480.53 572.834 486.537 581.305 490.303V490.303Z" fill="#919191" stroke="#263238" stroke-linecap="round" stroke-linejoin="round"/>
<path d="M611.054 493.236C624.277 488.629 624.814 476.042 631.845 471.008C638.354 466.376 643.266 465.655 644.009 465.57C642.853 465.692 632.465 466.792 620.714 467.134C615.113 473.244 610.517 481.334 602.014 486.491C588.254 494.849 571.37 483.704 571.37 483.704L571.054 484.047C574.116 486.557 577.568 488.664 581.305 490.303C581.305 490.303 597.831 497.855 611.054 493.236Z" fill="#FFEF3D" stroke="#263238" stroke-linecap="round" stroke-linejoin="round"/>
<path d="M520.843 279.74C520.843 279.74 535.979 309.936 535.979 353.977C535.979 398.018 564.311 453.387 568.095 465.179C571.879 476.971 584.153 490.34 584.153 490.34C584.153 490.34 552.505 487.407 533.613 478.597C514.72 469.786 488.576 463.444 488.576 438.698C488.576 413.953 486.842 342.661 481.173 309.936C475.504 277.211 489.677 267.582 501.015 269.256C512.353 270.93 520.843 279.74 520.843 279.74Z" fill="#242424" stroke="#263238" stroke-linecap="round" stroke-linejoin="round"/>
<path d="M336.652 421.517C336.652 421.517 338.028 431.586 351.293 431.586C364.557 431.586 370.144 414.38 371.602 411.448C373.061 408.515 338.496 418.572 336.652 421.517Z" fill="#242424" stroke="#263238" stroke-linecap="round" stroke-linejoin="round"/>
<path d="M428.748 133.357C428.748 133.357 404.654 129.581 388.596 150.135C372.538 170.689 367.819 191.683 374.836 204.661C381.854 217.638 377.203 224.372 366.332 227.304C355.462 230.237 332.331 220.18 318.172 240.307C304.013 260.433 312.971 273.863 321.007 283.932C329.043 294.001 311.086 295.675 299.748 309.521C288.41 323.366 296.913 373.272 355.957 363.631C415.002 353.989 417.877 330.918 421.606 309.521C425.335 288.123 443.801 270.93 464.111 271.773C484.421 272.616 501.428 265.064 500.011 245.341C498.594 225.618 481.586 223.528 482.536 211.785C483.485 200.042 495.291 189.557 486.32 166.913C477.348 144.27 449.058 130.84 428.748 133.357Z" fill="#263238" stroke="#263238" stroke-linecap="round" stroke-linejoin="round"/>
<path d="M457.52 225.349C457.52 225.349 459.405 247.528 461.758 250.449C464.111 253.37 474.486 257.989 489.085 262.168C503.685 266.347 511.225 287.268 506.051 310.706C500.878 334.144 489.539 362.995 490.915 368.861C492.291 374.726 511.638 392.702 506.051 417.741C500.465 442.78 498.112 439.138 498.112 439.138C498.112 439.138 506.12 434.959 511.762 438.723C517.403 442.486 523.073 444.588 530.613 443.745C538.154 442.902 547.125 444.588 555.106 453.79C563.087 462.992 566.884 473.452 577.246 478.474C587.607 483.497 626.245 487.676 626.245 489.766C626.245 491.855 607.408 502.315 585.736 507.338C564.064 512.36 517.376 513.24 488.15 514.034C458.923 514.829 432.559 517.798 403.347 519.472C374.134 521.147 370.323 520.694 346.339 511.102C322.355 501.509 313.315 498.967 310.068 483.497C306.82 468.026 319.7 456.613 332.208 445.835C343.725 435.949 385.872 393.961 391.1 383.513C396.329 373.065 400.512 364.682 402.879 358.828C405.246 352.975 393.921 326.616 388.266 308.616C382.611 290.616 386.381 278.922 386.381 278.922C386.381 278.922 360.939 270.551 351.527 258.832C342.115 247.113 348.692 243.349 364.241 240.001C379.79 236.653 392.036 237.557 400.512 237.557C408.988 237.557 421.716 241.321 424.069 241.321C426.422 241.321 422.693 228.771 422.693 228.771C428.242 230.764 434.134 231.897 440.114 232.119C448.576 232.046 457.52 225.349 457.52 225.349Z" fill="#FFEF3D" stroke="#263238" stroke-linecap="round" stroke-linejoin="round"/>
<path d="M461.758 250.51C459.405 247.589 457.52 225.41 457.52 225.41C457.52 225.41 448.576 232.107 440.086 232.107C434.106 231.884 428.214 230.752 422.666 228.758C422.666 228.758 426.422 241.308 424.042 241.308C422.46 241.308 416.144 239.598 409.608 238.486C409.14 245.194 407.434 283.027 427.702 287.366C444.338 290.885 459.79 272.298 470.069 255.594C465.803 253.602 462.873 251.842 461.758 250.51Z" fill="#B2B2B2" stroke="#263238" stroke-linecap="round" stroke-linejoin="round"/>
<path d="M577.177 478.474C566.816 473.452 563.045 462.992 555.037 453.79C547.029 444.588 538.085 442.914 530.544 443.745C523.004 444.576 517.348 442.523 511.693 438.723C507.565 435.949 502.061 437.501 499.529 438.49C499.962 437.861 500.331 437.199 500.63 436.511L488.246 449.623C488.246 449.623 493.915 452.556 502.887 451.297C511.858 450.038 524.614 452.519 531.218 465.142C537.823 477.766 535.952 477.717 541.621 483.179C547.29 488.641 569.485 499.065 580.342 502.047C589.974 504.65 594.79 504.613 595.739 504.576C612.857 499.187 626.163 491.525 626.163 489.766C626.176 487.676 587.552 483.497 577.177 478.474Z" fill="white" stroke="#263238" stroke-linecap="round" stroke-linejoin="round"/>
<path d="M345.816 480.601C348.14 475.51 351.288 470.747 355.159 466.462C369.071 451.004 422.762 420.552 443.636 406.865" stroke="#263238" stroke-linecap="round" stroke-linejoin="round"/>
<path d="M341.743 497.354C341.778 494.443 342.185 491.545 342.954 488.715" stroke="#263238" stroke-linecap="round" stroke-linejoin="round"/>
<path d="M456.46 396.869C458.813 396.588 461.18 396.38 463.519 396.271" stroke="#263238" stroke-linecap="round" stroke-linejoin="round"/>
<path d="M404.365 413.036C417.242 406.855 430.913 402.079 445.081 398.812" stroke="#263238" stroke-linecap="round" stroke-linejoin="round"/>
<path d="M498.112 439.138C498.112 439.138 461.882 483.13 421.262 495.753" stroke="#263238" stroke-linecap="round" stroke-linejoin="round"/>
<path d="M453.612 479.024C453.612 479.024 444.806 491.525 433.467 498.662" stroke="#263238" stroke-linecap="round" stroke-linejoin="round"/>
<path d="M474.417 496.743C494.452 493.456 528.659 486.552 552.959 474.747" stroke="#263238" stroke-linecap="round" stroke-linejoin="round"/>
<path d="M458.029 499.114C458.029 499.114 460.85 498.784 465.638 498.1" stroke="#263238" stroke-linecap="round" stroke-linejoin="round"/>
<path d="M496.736 264.221C496.736 264.221 484.448 271.773 468.872 288.551C453.296 305.329 430.688 370.339 415.992 392.152C401.297 413.965 365.452 420.674 354.072 421.089C342.693 421.504 336.597 421.517 336.597 421.517C336.597 421.517 370.997 401.378 383.821 383.769C396.646 366.16 403.663 326.714 422.556 301.137C441.448 275.561 464.111 251.219 464.111 251.219C464.111 251.219 485.425 256.62 496.736 264.221Z" fill="#919191" stroke="#263238" stroke-linecap="round" stroke-linejoin="round"/>
<path d="M468.5 252.429C465.845 251.647 464.166 251.207 464.166 251.207C464.166 251.207 441.503 275.537 422.611 301.126C403.718 326.714 396.632 366.136 383.876 383.757C380.924 387.675 377.551 391.33 373.804 394.67C386.56 389.195 392.559 380.482 398.572 368.091C406.085 352.694 427.647 305.989 441.008 287.146C450.901 273.24 462.9 258.955 468.5 252.429Z" fill="#FFEF3D" stroke="#263238" stroke-linecap="round" stroke-linejoin="round"/>
<path d="M415.992 392.152C430.633 370.339 453.309 305.329 468.899 288.551C484.49 271.773 496.736 264.221 496.736 264.221C494.862 262.997 492.905 261.879 490.874 260.873C476.447 268.239 464.627 279.04 456.749 292.058C438.682 321.386 420.602 381.386 392.325 399.594C372.813 412.107 356.288 414.331 347.922 414.502C341.344 418.853 336.652 421.602 336.652 421.602C336.652 421.602 342.789 421.602 354.127 421.175C365.466 420.747 401.352 413.965 415.992 392.152Z" fill="#FFEF3D" stroke="#263238" stroke-linecap="round" stroke-linejoin="round"/>
<path d="M461.758 192.722C461.758 192.722 463.643 182.677 468.831 184.351C474.018 186.025 472.119 194.396 470.716 198.575C470.2 199.871 469.391 201.059 468.338 202.066C467.285 203.073 466.01 203.877 464.593 204.429L461.758 192.722Z" fill="#B2B2B2" stroke="#263238" stroke-linecap="round" stroke-linejoin="round"/>
<path d="M402.851 205.358C402.851 205.358 394.719 198.184 391.61 202.229C388.5 206.274 395.531 212.091 399.439 214.755C400.712 215.535 402.151 216.074 403.669 216.339C405.186 216.604 406.749 216.589 408.259 216.294L402.851 205.358Z" fill="#B2B2B2" stroke="#263238" stroke-linecap="round" stroke-linejoin="round"/>
<path d="M425.019 159.667C425.019 159.667 411.355 185.182 396.742 197.317C396.742 197.317 406.168 218.237 411.355 227.024C416.543 235.81 434.912 242.506 444.379 242.506C453.846 242.506 463.23 228.698 465.583 221.586C467.936 214.474 460.877 176.372 460.877 176.372C460.877 176.372 431.61 168.038 425.019 159.667Z" fill="#B2B2B2" stroke="#263238" stroke-linecap="round" stroke-linejoin="round"/>
<path d="M443.98 197.671C443.499 196.938 443.205 196.121 443.119 195.276C443.034 194.431 443.158 193.58 443.485 192.783C444.089 191.141 445.289 189.723 446.897 188.75C448.456 187.804 450.307 187.309 452.195 187.333C453.096 187.348 453.99 187.476 454.85 187.712C455.73 188.002 456.552 188.414 457.286 188.934V189.276C455.827 189.366 454.381 189.575 452.965 189.899C451.566 190.233 450.24 190.774 449.044 191.5C446.633 192.967 444.952 195.204 444.352 197.744L443.98 197.671Z" fill="#263238"/>
<path d="M408.672 199.846C408.829 199.003 409.195 198.201 409.742 197.497C410.289 196.794 411.004 196.206 411.837 195.777C413.468 194.838 415.404 194.408 417.341 194.555C419.224 194.714 421.006 195.383 422.446 196.474C423.125 196.995 423.718 197.6 424.207 198.27C424.672 198.996 425.002 199.784 425.184 200.604L424.95 200.873C423.757 200.112 422.49 199.445 421.166 198.881C419.858 198.357 418.465 198.023 417.038 197.891C414.127 197.652 411.225 198.418 408.933 200.03L408.672 199.846Z" fill="#263238"/>
<path d="M407.117 191.463C407.117 191.463 408.053 183.508 418.896 183.092" stroke="#263238" stroke-width="2" stroke-linecap="round" stroke-linejoin="round"/>
<path d="M436.797 178.913C439.322 178.221 441.992 178.049 444.603 178.411C447.214 178.773 449.698 179.659 451.865 181.003" stroke="#263238" stroke-width="2" stroke-linecap="round" stroke-linejoin="round"/>
<path d="M432.559 211.968C434.72 212.439 436.928 212.718 439.15 212.799C441.971 212.799 443.856 208.62 443.856 208.62" stroke="#263238" stroke-linecap="round" stroke-linejoin="round"/>
<path d="M432.559 218.653C432.559 218.653 442.921 222.001 448.576 213.63" stroke="#263238" stroke-linecap="round" stroke-linejoin="round"/>
<path d="M429.312 176.188C429.312 176.56 429.188 176.924 428.955 177.234C428.722 177.543 428.391 177.784 428.004 177.927C427.617 178.069 427.191 178.106 426.779 178.034C426.368 177.961 425.991 177.782 425.695 177.519C425.398 177.256 425.196 176.92 425.115 176.555C425.033 176.19 425.075 175.812 425.235 175.468C425.396 175.124 425.667 174.83 426.016 174.623C426.364 174.417 426.774 174.306 427.193 174.306C427.471 174.306 427.747 174.355 428.004 174.449C428.261 174.544 428.495 174.683 428.691 174.857C428.888 175.032 429.044 175.24 429.151 175.468C429.257 175.696 429.312 175.941 429.312 176.188V176.188Z" fill="#263238"/>
<path d="M463.478 306.429C463.478 306.429 464.675 291.252 472.615 293.72C480.554 296.189 474.995 312.417 472.615 316.303C470.234 320.189 463.079 312.832 463.478 306.429Z" fill="white" stroke="#263238" stroke-linecap="round" stroke-linejoin="round"/>
<path d="M422.955 253.859C429.874 258.926 435.438 265.296 439.247 272.506C443.007 280.465 446.192 288.628 448.782 296.946C448.782 296.946 458.318 295.883 469.835 307.883C481.352 319.883 482.343 339.191 476.591 350.226C466.657 369.277 434.486 365.391 418.593 364.327C402.7 363.264 394.362 352.694 387.206 337.871C380.051 323.048 384.028 292.009 386.408 283.541C388.789 275.073 389.16 268.376 386.408 259.908C383.656 251.439 403.498 242.213 422.955 253.859Z" fill="white" stroke="#263238" stroke-linecap="round" stroke-linejoin="round"/>
<path d="M462.68 311.72C462.68 311.72 469.835 303.252 473.413 305.011C476.99 306.771 479.77 316.302 479.77 316.302C479.77 316.302 481.751 302.86 488.108 303.252C494.466 303.643 493.612 315.239 489.306 329.708C484.999 344.176 477.788 341.353 476.591 337.468C475.943 335.313 475.148 333.195 474.211 331.125" fill="white"/>
<path d="M462.68 311.72C462.68 311.72 469.835 303.252 473.413 305.011C476.99 306.771 479.77 316.302 479.77 316.302C479.77 316.302 481.751 302.86 488.108 303.252C494.466 303.643 493.612 315.239 489.306 329.708C484.999 344.176 477.788 341.353 476.591 337.468C475.943 335.313 475.148 333.195 474.211 331.125" stroke="#263238" stroke-linecap="round" stroke-linejoin="round"/>
<path d="M387.66 295.724C387.66 295.724 391.788 298.473 408.3 299.5C424.812 300.526 436.55 291.667 435.889 296.323C433.137 315.875 396.783 316.437 385.541 303.264C383.409 300.795 383.257 295.81 387.66 295.724Z" fill="#263238" stroke="#263238" stroke-linecap="round" stroke-linejoin="round"/>
<path d="M388.458 314.58C388.458 314.58 392.586 317.329 409.098 318.356C425.611 319.382 437.348 310.523 436.701 315.179C433.949 334.731 397.581 335.293 386.353 322.12C384.207 319.676 384.055 314.69 388.458 314.58Z" fill="#263238" stroke="#263238" stroke-linecap="round" stroke-linejoin="round"/>
<path d="M393.674 336.576C393.674 336.576 397.98 339.02 414.506 339.02C431.032 339.02 442.026 329.39 441.765 334.058C440.623 353.72 404.406 356.665 392.119 344.25C389.848 341.928 389.284 336.967 393.674 336.576Z" fill="#263238" stroke="#263238" stroke-linecap="round" stroke-linejoin="round"/>
<path d="M412.8 354.478C412.8 354.478 417.547 356.201 433.784 353.452C450.021 350.702 458.855 339.484 459.556 344.128C462.501 363.68 427.509 372.454 412.869 362.262C410.144 360.368 408.562 355.602 412.8 354.478Z" fill="#263238" stroke="#263238" stroke-linecap="round" stroke-linejoin="round"/>
<path d="M494.273 301.92L495.649 359.232C495.649 359.232 456.075 362.58 443.361 360.906C430.647 359.232 425.473 357.142 425.473 357.142C422.862 353.652 420.499 350.019 418.4 346.266C416.047 341.659 414.162 341.659 410.392 337.48C406.622 333.301 404.269 330.368 404.269 334.963C404.269 339.557 407.103 340.828 408.039 342.502C408.683 344.11 409.005 345.806 408.988 347.513C408.988 347.513 397.678 345.008 394.375 343.749C391.073 342.49 388.252 340.828 387.784 342.918C387.316 345.008 387.784 346.266 389.669 350.03C391.555 353.794 389.669 360.49 391.555 363.839C393.44 367.187 400.499 371.782 403.801 373.04C407.103 374.299 422.652 373.456 427.826 373.871C433 374.287 460.341 378.894 477.293 381.826C494.245 384.759 512.629 386.849 517.816 384.332C523.004 381.814 525.825 380.152 526.76 375.973C527.696 371.794 529.113 329.109 529.113 317.39C529.113 305.671 528.646 289.785 524.875 282.246C522.707 278.328 519.602 274.877 515.779 272.134C511.955 269.39 507.504 267.42 502.735 266.36C493.778 264.686 496.75 264.233 496.75 264.233" fill="#B2B2B2"/>
<path d="M494.273 301.92L495.649 359.232C495.649 359.232 456.075 362.58 443.361 360.906C430.647 359.232 425.473 357.142 425.473 357.142C422.862 353.652 420.499 350.019 418.4 346.266C416.047 341.659 414.162 341.659 410.392 337.48C406.622 333.301 404.269 330.368 404.269 334.963C404.269 339.557 407.103 340.828 408.039 342.502C408.683 344.11 409.005 345.806 408.988 347.513C408.988 347.513 397.678 345.008 394.375 343.749C391.073 342.49 388.252 340.828 387.784 342.918C387.316 345.008 387.784 346.266 389.669 350.03C391.555 353.794 389.669 360.49 391.555 363.839C393.44 367.187 400.499 371.782 403.801 373.04C407.103 374.299 422.652 373.456 427.826 373.871C433 374.287 460.341 378.894 477.293 381.826C494.245 384.759 512.629 386.849 517.816 384.332C523.004 381.814 525.825 380.152 526.76 375.973C527.696 371.794 529.113 329.109 529.113 317.39C529.113 305.671 528.646 289.785 524.875 282.246C522.707 278.328 519.602 274.877 515.779 272.134C511.955 269.39 507.504 267.42 502.735 266.36C493.778 264.686 496.75 264.233 496.75 264.233" stroke="#263238" stroke-linecap="round" stroke-linejoin="round"/>
<path d="M491.232 295.406L494.906 327.264C500.74 325.064 513.895 320.848 527.311 321.74L529.099 321.887C529.099 320.115 529.099 318.588 529.099 317.39C529.099 305.683 528.632 289.785 524.861 282.245C522.693 278.328 519.588 274.877 515.765 272.133C511.941 269.39 507.49 267.419 502.722 266.359C501.346 266.115 497.218 266.03 496.351 265.834" fill="#FFEF3D"/>
<path d="M491.232 295.406L494.906 327.264C500.74 325.064 513.895 320.848 527.311 321.74L529.099 321.887C529.099 320.115 529.099 318.588 529.099 317.39C529.099 305.683 528.632 289.785 524.861 282.245C522.693 278.328 519.588 274.877 515.765 272.133C511.941 269.39 507.49 267.419 502.722 266.359C501.346 266.115 497.218 266.03 496.351 265.834" stroke="#263238" stroke-linecap="round" stroke-linejoin="round"/>
<path d="M434.912 383.256C433.872 383.256 432.873 382.894 432.129 382.248C431.386 381.601 430.957 380.722 430.936 379.798L430.468 357.631C430.427 357.152 430.497 356.67 430.674 356.216C430.85 355.762 431.129 355.345 431.493 354.99C431.857 354.634 432.299 354.349 432.791 354.151C433.284 353.952 433.817 353.845 434.357 353.836C434.898 353.827 435.435 353.916 435.936 354.097C436.437 354.279 436.891 354.549 437.27 354.892C437.649 355.234 437.945 355.642 438.141 356.09C438.336 356.538 438.427 357.016 438.407 357.496L438.875 379.663C438.886 380.127 438.794 380.587 438.604 381.019C438.414 381.45 438.13 381.844 437.768 382.178C437.406 382.512 436.974 382.779 436.496 382.964C436.017 383.149 435.503 383.248 434.981 383.256H434.912Z" fill="white" stroke="#263238" stroke-linecap="round" stroke-linejoin="round"/>
<path d="M358.586 241.663C358.586 241.663 323.25 245.439 320.897 253.798C318.544 262.156 331.258 278.066 358.586 285.57C385.913 293.073 428.307 299.012 433.495 300.234C438.683 301.456 437.733 309.02 437.733 309.02L436.357 326.592C436.357 326.592 429.766 343.7 431.183 344.164C432.601 344.629 434.472 342.942 436.839 337.883C438.982 333.8 441.499 329.881 444.365 326.164C444.365 326.164 447.2 325.333 447.2 329.097C447.2 332.861 443.43 348.344 443.43 348.344C443.43 348.344 445.783 351.276 447.2 347.928C448.617 344.58 455.208 330.82 455.208 330.82V348.808C455.208 348.808 457.093 350.03 458.511 349.651C459.928 349.272 462.226 327.496 462.226 327.496C462.929 328.392 463.721 329.231 464.593 330.001C465.969 331.223 467.881 348.002 467.881 348.002C467.881 348.002 470.248 349.224 471.184 347.158C472.119 345.093 469.808 328.755 469.299 324.148C468.789 319.541 457.988 300.307 455.167 295.7C452.346 291.093 444.806 286.914 436.797 284.824C431.816 283.529 383.133 262.645 361.888 250.095" fill="#B2B2B2"/>
<path d="M358.586 241.663C358.586 241.663 323.25 245.439 320.897 253.798C318.544 262.156 331.258 278.066 358.586 285.57C385.913 293.073 428.307 299.012 433.495 300.234C438.683 301.456 437.733 309.02 437.733 309.02L436.357 326.592C436.357 326.592 429.766 343.7 431.183 344.164C432.601 344.629 434.472 342.942 436.839 337.883C438.982 333.8 441.499 329.881 444.365 326.164C444.365 326.164 447.2 325.333 447.2 329.097C447.2 332.861 443.43 348.344 443.43 348.344C443.43 348.344 445.783 351.276 447.2 347.928C448.617 344.58 455.208 330.82 455.208 330.82V348.808C455.208 348.808 457.093 350.03 458.511 349.651C459.928 349.272 462.226 327.496 462.226 327.496C462.929 328.392 463.721 329.231 464.593 330.001C465.969 331.223 467.881 348.002 467.881 348.002C467.881 348.002 470.248 349.224 471.184 347.158C472.119 345.093 469.808 328.755 469.299 324.148C468.789 319.541 457.988 300.307 455.167 295.7C452.346 291.093 444.806 286.914 436.797 284.824C431.816 283.529 383.133 262.645 361.888 250.095" stroke="#263238" stroke-linecap="round" stroke-linejoin="round"/>
<path d="M432.559 307.113H432.16C431.113 307.018 430.15 306.558 429.483 305.835C428.815 305.111 428.496 304.183 428.596 303.252C430.371 287.073 441.256 283.126 446.842 283.345C447.859 283.419 448.805 283.837 449.485 284.512C450.165 285.188 450.527 286.07 450.495 286.976C450.463 287.881 450.04 288.741 449.314 289.378C448.588 290.015 447.615 290.379 446.594 290.396C445.659 290.396 437.939 290.836 436.508 303.948C436.409 304.817 435.95 305.622 435.221 306.207C434.491 306.792 433.542 307.115 432.559 307.113V307.113Z" fill="white" stroke="#263238" stroke-linecap="round" stroke-linejoin="round"/>
<path d="M397.224 268.449C388.734 268.449 370.364 267.227 366.594 262.168C362.824 257.109 367.97 250.449 367.97 250.449C367.97 250.449 362.782 242.09 364.667 237.483C366.553 232.877 383.051 236.261 383.051 236.261L402.315 230.824C402.315 230.824 411.424 223.626 416.529 223.626C421.634 223.626 419.363 234.929 419.363 234.929C419.363 234.929 428.307 236.604 430.674 244.131C433.041 251.659 425.954 257.097 422.666 260.017C419.377 262.938 417.01 263.365 417.01 263.365" fill="white"/>
<path d="M397.224 268.449C388.734 268.449 370.364 267.227 366.594 262.168C362.824 257.109 367.97 250.449 367.97 250.449C367.97 250.449 362.782 242.09 364.667 237.483C366.553 232.877 383.051 236.261 383.051 236.261L402.315 230.824C402.315 230.824 411.424 223.626 416.529 223.626C421.634 223.626 419.363 234.929 419.363 234.929C419.363 234.929 428.307 236.604 430.674 244.131C433.041 251.659 425.954 257.097 422.666 260.017C419.377 262.938 417.01 263.365 417.01 263.365" stroke="#263238" stroke-linecap="round" stroke-linejoin="round"/>
<path d="M404.544 254.629C404.544 254.629 398.379 255.545 398.889 256.914C399.398 258.282 401.971 259.199 404.544 258.282C407.117 257.366 407.433 254.176 404.544 254.629Z" fill="white" stroke="#263238" stroke-linecap="round" stroke-linejoin="round"/>
<path d="M395.559 251.805C395.93 253.284 395.49 254.616 394.595 254.799C393.701 254.983 392.669 253.919 392.298 252.441C391.926 250.962 392.298 249.618 393.261 249.447C394.224 249.276 395.201 250.327 395.559 251.805Z" fill="#263238"/>
<path d="M409.071 248.836C409.429 250.315 409.002 251.647 408.094 251.83C407.186 252.013 406.168 250.95 405.796 249.472C405.425 247.993 405.796 246.649 406.773 246.478C407.75 246.307 408.672 247.358 409.071 248.836Z" fill="#263238"/>
<path d="M403.856 259.382C404.121 259.923 404.206 260.52 404.101 261.102C403.996 261.685 403.706 262.228 403.264 262.669C401.709 264.05 398.393 263.537 397.76 261.63" stroke="#263238" stroke-linecap="round" stroke-linejoin="round"/>
<path d="M404.434 261.63C404.434 261.63 405.989 263.195 408.727 261.63C409.089 261.463 409.4 261.221 409.635 260.926C409.871 260.63 410.023 260.288 410.079 259.93C410.136 259.571 410.095 259.205 409.96 258.864C409.826 258.522 409.601 258.213 409.305 257.964" stroke="#263238" stroke-linecap="round" stroke-linejoin="round"/>
<path d="M402.686 233.598C402.686 233.598 387.55 236.714 385.927 239.83C384.303 242.946 402.686 238.095 405.026 236.164C407.365 234.233 405.218 232.914 402.686 233.598Z" fill="#263238" stroke="#263238" stroke-linecap="round" stroke-linejoin="round"/>
<path d="M400.155 240.869C400.155 240.869 390.206 243.985 391.376 244.853C392.545 245.72 401.709 243.631 403.65 242.25C405.59 240.869 403.65 239.83 400.155 240.869Z" fill="#263238" stroke="#263238" stroke-linecap="round" stroke-linejoin="round"/>
<path d="M365.273 257.304C365.273 257.304 380.67 248.653 379.693 252.808C378.716 256.962 368.396 263.537 368.396 263.537C367.143 262.981 366.145 262.055 365.576 260.918C365.006 259.781 364.899 258.504 365.273 257.304V257.304Z" fill="#263238" stroke="#263238" stroke-linecap="round" stroke-linejoin="round"/>
<path d="M376.185 266.482C376.185 266.482 385.541 256.437 384.95 261.117C384.358 265.797 382.198 267.166 382.198 267.166C382.198 267.166 376.762 266.482 376.185 266.482Z" fill="#263238" stroke="#263238" stroke-linecap="round" stroke-linejoin="round"/>
<path d="M427.812 240.001C427.812 240.001 417.492 241.907 418.263 243.667C419.033 245.427 430.743 247.333 430.743 247.333C430.743 247.333 431.321 242.421 427.812 240.001Z" fill="#263238" stroke="#263238" stroke-linecap="round" stroke-linejoin="round"/>
<path d="M427.619 255.398C427.619 255.398 417.093 252.111 417.877 254.543C418.662 256.975 423.725 259.211 423.725 259.211C423.725 259.211 426.257 256.791 427.619 255.398Z" fill="#263238" stroke="#263238" stroke-linecap="round" stroke-linejoin="round"/>
<path d="M364.709 237.484C364.709 237.484 370.832 238.706 373.667 241.248C376.501 243.789 377.437 244.596 373.667 247.944C369.896 251.292 368.011 250.388 368.011 250.388C368.011 250.388 364.241 243.765 364.709 237.484Z" fill="white" stroke="#263238" stroke-linecap="round" stroke-linejoin="round"/>
<path d="M416.529 223.626C416.529 223.626 411.355 233.255 413.777 235.761C416.199 238.266 419.432 234.93 419.432 234.93C419.432 234.93 422.666 223.26 416.529 223.626Z" fill="white" stroke="#263238" stroke-linecap="round" stroke-linejoin="round"/>
<path d="M397.54 265.089C397.54 265.089 389.807 264.172 387.22 266.922C384.633 269.671 387.22 271.504 394.444 271.956C401.668 272.408 406.195 268.034 397.54 265.089Z" fill="white" stroke="#263238" stroke-linecap="round" stroke-linejoin="round"/>
<path d="M429.532 263.256C429.532 263.256 417.148 260.042 410.447 263.708C403.746 267.374 397.031 277.456 404.255 281.574C411.479 285.692 413.543 273.337 413.543 273.337C413.543 273.337 425.927 287.073 437.265 279.289" fill="white"/>
<path d="M429.532 263.256C429.532 263.256 417.148 260.042 410.447 263.708C403.746 267.374 397.031 277.456 404.255 281.574C411.479 285.692 413.543 273.337 413.543 273.337C413.543 273.337 425.927 287.073 437.265 279.289" stroke="#263238" stroke-linecap="round" stroke-linejoin="round"/>
<path d="M537.768 296.946C523.871 293.769 508.377 307.883 504.4 319.883C500.424 331.883 498.043 348.808 488.109 354.099C485.713 355.389 483.054 356.247 480.284 356.622C477.514 356.997 474.688 356.883 471.968 356.287C470.224 357.878 468.237 359.243 466.065 360.344C474.486 362.421 490.365 364.596 500.465 355.114C514.775 341.672 511.597 323.342 523.114 314.543C534.631 305.745 541.786 322.303 548.928 316.657C556.069 311.012 551.68 300.075 537.768 296.946Z" fill="white" stroke="#263238" stroke-linecap="round" stroke-linejoin="round"/>
<path d="M505.212 349.627L496.419 344.372C495.44 346.471 494.178 348.456 492.663 350.287C494.438 352.535 496.667 355.175 498.167 356.91C498.939 356.353 499.67 355.753 500.355 355.113C502.171 353.429 503.798 351.592 505.212 349.627V349.627Z" fill="#263238" stroke="#263238" stroke-linecap="round" stroke-linejoin="round"/>
<path d="M537.768 296.946C536.915 296.751 536.045 296.62 535.168 296.555C529.966 301.443 528.673 307.981 528.411 312.099C536.943 310.62 542.914 321.423 548.886 316.706C556.041 311.011 551.68 300.075 537.768 296.946Z" fill="#263238" stroke="#263238" stroke-linecap="round" stroke-linejoin="round"/>
<path d="M483.87 355.81C482.395 356.261 480.867 356.564 479.316 356.714C479.765 358.507 480.335 360.274 481.022 362.006V362.116C483.624 362.065 486.211 361.741 488.728 361.15C487.31 359.233 485.683 357.444 483.87 355.81V355.81Z" fill="#263238" stroke="#263238" stroke-linecap="round" stroke-linejoin="round"/>
<path d="M502.419 326.458C501.745 328.902 501.043 331.346 500.355 333.79L510.909 338.555C512.147 335.256 513.138 331.981 514.211 328.889L502.419 326.458Z" fill="#263238" stroke="#263238" stroke-linecap="round" stroke-linejoin="round"/>
<path d="M508.9 311.329L518.023 320.25C519.067 318.503 520.387 316.898 521.944 315.484L514.225 305.317C512.243 307.17 510.46 309.182 508.9 311.329V311.329Z" fill="#263238" stroke="#263238" stroke-linecap="round" stroke-linejoin="round"/>
<path d="M496.736 264.844V264.221C496.736 264.221 495.759 264.38 496.736 264.844Z" fill="white" stroke="#263238" stroke-linecap="round" stroke-linejoin="round"/>
<path d="M134.848 400.351C134.848 400.351 127.431 398.03 120.882 382.131C114.332 366.233 99.0582 362.372 83.7296 367.015C68.4009 371.659 71.951 386.396 76.7533 387.948C81.5555 389.5 85.4771 381.753 95.5219 377.488C105.567 373.223 110.796 382.914 113.41 389.891C116.024 396.869 126.592 404.616 132.234 404.616C137.875 404.616 136.224 404.237 134.848 400.351Z" fill="#263238" stroke="#263238" stroke-linecap="round" stroke-linejoin="round"/>
<path d="M140.091 406.559C140.091 406.559 141.467 391.834 154.924 383.683C168.381 375.533 191.154 384.905 195.516 392.237C198.259 397.207 199.89 402.602 200.318 408.123L140.091 406.559Z" fill="#263238" stroke="#263238" stroke-linecap="round" stroke-linejoin="round"/>
<path d="M166.4 390.514C166.4 390.514 158.859 395.671 158.281 402.881C157.703 410.091 180.916 411.13 188.457 408.551C195.997 405.973 194.25 392.066 184.329 385.333C174.408 378.6 166.4 390.514 166.4 390.514Z" fill="white" stroke="#263238" stroke-linecap="round" stroke-linejoin="round"/>
<path d="M291.12 385.236C285.878 382.132 274.526 385.627 274.526 385.627C274.526 385.627 277.58 380.201 277.58 375.936C277.58 371.671 264.054 367.382 264.054 367.382C261.144 364.968 257.686 363.134 253.913 362.003C250.14 360.871 246.139 360.468 242.176 360.82C242.176 360.82 243.043 345.704 241.295 346.083C239.548 346.462 230.384 351.508 221.22 364.303C212.055 377.097 223.105 387.252 225.733 393.838C225.733 394.034 225.884 394.205 225.953 394.388C223.82 397.321 220.752 401.452 218.839 403.724C216.445 406.559 237.002 405.117 247.212 404.238H283.635C284.169 402.995 284.467 401.681 284.516 400.352C284.365 398.272 284.071 396.203 283.635 394.156C284.377 395.666 285.74 396.867 287.446 397.514C289.152 398.162 291.071 398.206 292.813 397.639C299.404 395.708 296.349 388.339 291.12 385.236Z" fill="white" stroke="#263238" stroke-linecap="round" stroke-linejoin="round"/>
<path d="M274.526 385.626C271.693 387.542 269.369 389.988 267.719 392.79C266.068 395.593 265.132 398.683 264.976 401.842" stroke="#263238" stroke-linecap="round" stroke-linejoin="round"/>
<path d="M251.395 370.901C254.118 366.902 257.279 363.153 260.835 359.708C262.857 357.899 269.421 352.241 272.875 353.744C275.021 354.685 273.301 358.119 272.778 359.659C270.164 367.406 270.164 379.04 265.362 382.522C260.559 386.005 251.835 382.131 251.835 382.131" fill="white"/>
<path d="M251.395 370.901C254.118 366.902 257.279 363.153 260.835 359.708C262.857 357.899 269.421 352.241 272.875 353.744C275.021 354.685 273.301 358.119 272.778 359.659C270.164 367.406 270.164 379.04 265.362 382.522C260.559 386.005 251.835 382.131 251.835 382.131" stroke="#263238" stroke-linecap="round" stroke-linejoin="round"/>
<path d="M242.176 360.82C242.176 360.82 230.824 361.199 224.715 368.567" stroke="#263238" stroke-linecap="round" stroke-linejoin="round"/>
<path d="M286.318 400.352H125.244V517.028H286.318V400.352Z" fill="#B9B9B9" stroke="#263238" stroke-linecap="round" stroke-linejoin="round"/>
<path d="M103.42 400.352L93.3754 425.549H110.837L103.42 400.352Z" fill="#4B4B4B" stroke="#263238" stroke-linecap="round" stroke-linejoin="round"/>
<path d="M125.244 400.352H103.42V501.142L125.244 517.04V400.352Z" fill="#737373" stroke="#263238" stroke-linecap="round" stroke-linejoin="round"/>
<path d="M125.244 400.352L139.21 439.126H297.656L286.318 400.352H125.244Z" fill="#B9B9B9" stroke="#263238" stroke-linecap="round" stroke-linejoin="round"/>
<path d="M174.133 356.164C174.133 356.164 191.154 347.61 192.901 351.129C194.649 354.649 184.645 364.693 184.645 364.693L174.133 356.164Z" fill="#263238" stroke="#263238" stroke-linecap="round" stroke-linejoin="round"/>
<path d="M176.747 393.765C158.859 395.708 153.176 388.339 149.695 386.787C146.214 385.235 138.783 387.178 136.595 386.787C134.408 386.396 137.462 377.097 143.572 368.176C146.948 363.081 151.395 358.609 156.671 355.003C156.671 355.003 167.583 353.06 175.935 355.394C184.288 357.728 188.595 365.085 193.823 365.463C199.052 365.842 198.612 368.958 198.185 373.223C197.759 377.488 197.745 380.97 193.823 385.235C191.139 387.982 187.865 390.226 184.191 391.834" fill="white"/>
<path d="M176.747 393.765C158.859 395.708 153.176 388.339 149.695 386.787C146.214 385.235 138.783 387.178 136.595 386.787C134.408 386.396 137.462 377.097 143.572 368.176C146.948 363.081 151.395 358.609 156.671 355.003C156.671 355.003 167.583 353.06 175.935 355.394C184.288 357.728 188.595 365.085 193.823 365.463C199.052 365.842 198.612 368.958 198.185 373.223C197.759 377.488 197.745 380.97 193.823 385.235C191.139 387.982 187.865 390.226 184.191 391.834" stroke="#263238" stroke-linecap="round" stroke-linejoin="round"/>
<path d="M156.671 355.003C151.395 358.609 146.948 363.081 143.572 368.176C137.462 377.097 134.408 386.396 136.595 386.787C138.783 387.178 146.227 385.235 149.695 386.787C152.364 388.009 156.355 392.567 166.124 393.789C165.912 391.977 166.21 390.146 166.991 388.461C169.881 381.252 182.65 378.16 187.865 371.451C193.08 364.742 184.384 360.123 184.384 360.123V359.903C181.928 357.91 179.046 356.376 175.908 355.394C167.583 353.06 156.671 355.003 156.671 355.003Z" fill="#263238" stroke="#263238" stroke-linecap="round" stroke-linejoin="round"/>
<path d="M148.979 363.264C148.979 363.264 155.337 348.221 165.836 344.482C172 342.27 170.211 360.49 170.211 360.49" fill="#263238"/>
<path d="M148.979 363.264C148.979 363.264 155.337 348.221 165.836 344.482C172 342.27 170.211 360.49 170.211 360.49" stroke="#263238" stroke-linecap="round" stroke-linejoin="round"/>
<path d="M193.782 365.463C193.782 365.463 190.714 366.245 192.901 369.349C195.089 372.453 197.263 375.154 199.011 371.671C200.758 368.188 196.837 364.302 193.782 365.463Z" fill="white" stroke="#263238" stroke-linecap="round" stroke-linejoin="round"/>
<path d="M164.872 347.28C164.872 347.28 157.112 362.751 162.354 363.924C167.597 365.097 169.33 360.038 170.211 353.06C171.092 346.082 168.794 343.785 164.872 347.28Z" fill="white" stroke="#263238" stroke-linecap="round" stroke-linejoin="round"/>
<path d="M184.054 365.195C185.127 366.417 185.43 367.895 184.755 368.347C184.081 368.799 182.623 368.127 181.549 366.844C180.476 365.561 180.173 364.144 180.848 363.679C181.522 363.215 183.008 363.899 184.054 365.195Z" fill="white"/>
<path d="M160.607 395.708L153.176 387.948C153.176 387.948 148.374 385.236 145.319 387.57C142.265 389.904 134.848 403.065 141.398 408.148C147.947 413.232 152.309 400.388 153.617 399.227L154.993 398.067" fill="#263238"/>
<path d="M160.607 395.708L153.176 387.948C153.176 387.948 148.374 385.236 145.319 387.57C142.265 389.904 134.848 403.065 141.398 408.148C147.947 413.232 152.309 400.388 153.617 399.227L154.993 398.067" stroke="#263238" stroke-linecap="round" stroke-linejoin="round"/>
<path d="M153.121 399.887C151.738 398.14 149.97 396.661 147.924 395.539C145.878 394.418 143.597 393.677 141.219 393.362C138.756 398.25 137.187 404.873 141.398 408.111C147.232 412.633 151.36 402.796 153.121 399.887Z" fill="white" stroke="#263238" stroke-linecap="round" stroke-linejoin="round"/>
<path d="M192.943 395.256L196.837 387.924C196.837 387.924 201.639 385.211 204.694 387.545C207.749 389.879 215.165 403.04 208.615 408.087C202.066 413.134 197.704 400.327 196.397 399.166L195.089 398.005" fill="#263238"/>
<path d="M192.943 395.256L196.837 387.924C196.837 387.924 201.639 385.211 204.694 387.545C207.749 389.879 215.165 403.04 208.615 408.087C202.066 413.134 197.704 400.327 196.397 399.166L195.089 398.005" stroke="#263238" stroke-linecap="round" stroke-linejoin="round"/>
<path d="M209.744 395.463C202.685 396.429 199.616 399.533 198.35 402.539C200.497 406.388 204.019 411.655 208.615 408.111C212.248 405.313 211.574 400.021 209.744 395.463Z" fill="white" stroke="#263238" stroke-linecap="round" stroke-linejoin="round"/>
</svg>
