<svg width="446" height="492" viewBox="0 0 446 492" fill="none" xmlns="http://www.w3.org/2000/svg">
<g clip-path="url(#clip0_906_736)">
<path d="M339.79 -60.1455C322.859 -40.4473 322.116 -16.8904 321.382 5.86083C320.737 25.6622 320.123 44.3636 309.951 62.2342C281.707 111.615 263.889 140.068 287.35 180.706C310.812 221.343 344.396 220.176 401.3 220.475C421.901 220.59 438.46 229.467 455.958 238.816C476.037 249.551 496.764 260.667 522.261 255.903C531.579 254.399 540.536 251.177 548.677 246.403C583.132 226.51 595.323 182.88 577.769 152.476C560.216 122.072 521.758 90.8708 502.007 56.6611C482.256 22.4514 474.786 -25.8966 457.012 -56.6811C439.239 -87.4656 395.632 -98.2494 361.177 -78.3568C352.985 -73.6591 345.733 -67.4845 339.79 -60.1455Z" fill="#FFFF66" fill-opacity="0.5"/>
<path d="M458.413 289.495C443.312 263.339 403.807 257.874 370.177 277.291C336.547 296.707 321.527 333.651 336.629 359.808C351.73 385.964 391.235 391.428 424.865 372.012C458.495 352.596 473.515 315.652 458.413 289.495Z" fill="#FFFF66" fill-opacity="0.5"/>
<path d="M322.536 241.649C307.435 215.492 267.93 210.028 234.3 229.444C200.67 248.861 185.65 285.805 200.751 311.962C215.853 338.118 255.357 343.582 288.987 324.166C322.617 304.75 337.638 267.806 322.536 241.649Z" fill="#FFFF66" fill-opacity="0.6"/>
<path d="M252.224 119.864C237.122 93.7072 197.617 88.2431 163.987 107.659C130.357 127.076 115.337 164.02 130.439 190.176C145.54 216.333 185.045 221.797 218.675 202.381C252.305 182.965 267.325 146.02 252.224 119.864Z" fill="#FFFF66" fill-opacity="0.5"/>
<path d="M278.726 -21.7323C263.624 -47.889 224.12 -53.3531 190.49 -33.9369C156.86 -14.5206 141.84 22.4235 156.941 48.5802C172.043 74.7368 211.547 80.2009 245.177 60.7847C278.807 41.3684 293.827 4.42428 278.726 -21.7323Z" fill="#FFFF66" fill-opacity="0.5"/>
</g>
<defs>
<clipPath id="clip0_906_736">
<rect width="500" height="500" fill="white" transform="translate(250 491.013) rotate(-120)"/>
</clipPath>
</defs>
</svg>
